<svg width="51" height="49" viewBox="0 0 51 49" fill="none" xmlns="http://www.w3.org/2000/svg">
<path d="M31.9251 24.4982C28.881 24.4982 26.4133 26.9659 26.4133 30.01C26.4133 33.0541 28.881 35.5218 31.9251 35.5218C34.9692 35.5218 37.437 33.0541 37.437 30.01C37.437 26.9658 34.9692 24.4982 31.9251 24.4982ZM35.3412 29.9995C35.3412 31.8862 33.8118 33.4156 31.9251 33.4156C30.0384 33.4156 28.5091 31.8862 28.5091 29.9995C28.5091 28.1128 30.0384 26.5834 31.9251 26.5834C33.8118 26.5834 35.3412 28.1128 35.3412 29.9995Z" fill="#3035C4"/>
<path d="M39.0822 11.672H22.5782C21.9995 11.672 21.5303 12.1412 21.5303 12.7199C21.5303 13.2986 21.9995 13.7677 22.5782 13.7677H39.0822C39.6609 13.7677 40.1301 13.2986 40.1301 12.7199C40.1301 12.1412 39.6609 11.672 39.0822 11.672Z" fill="#3035C4"/>
<path d="M33.8428 7.6272H22.5782C21.9995 7.6272 21.5303 8.09638 21.5303 8.67507C21.5303 9.25376 21.9995 9.72295 22.5782 9.72295H33.8428C34.4215 9.72295 34.8907 9.25376 34.8907 8.67507C34.8907 8.09638 34.4215 7.6272 33.8428 7.6272Z" fill="#3035C4"/>
<path d="M14.3209 12.395C14.9204 11.7022 15.2514 10.8173 15.2535 9.90107C15.3646 7.76851 13.726 5.94953 11.5933 5.83846C9.46073 5.72738 7.64175 7.36613 7.53067 9.49869C7.52373 9.63269 7.52373 9.76708 7.53067 9.90107C7.53277 10.8173 7.86377 11.7022 8.46328 12.395C6.36295 13.4869 5.04288 15.655 5.03673 18.0221C5.03673 18.6008 5.50591 19.07 6.0846 19.07H16.6996C17.2783 19.07 17.7475 18.6008 17.7475 18.0221C17.7413 15.655 16.4212 13.487 14.3209 12.395ZM11.3869 8.14077C12.3649 8.14077 13.1578 8.93362 13.1578 9.91168C13.1578 10.8897 12.3649 11.6826 11.3869 11.6826C10.4088 11.6826 9.61595 10.8897 9.61595 9.91168C9.61595 8.93362 10.4088 8.14077 11.3869 8.14077ZM7.2687 16.9847C7.83574 14.7045 10.1438 13.3157 12.424 13.8827C13.9525 14.2629 15.1459 15.4563 15.526 16.9847H7.2687Z" fill="#E6514A"/>
<path d="M48.2196 1.2981H2.34357C1.1224 1.2981 0.132553 2.28808 0.132553 3.50911V31.5293C0.132553 32.7505 1.1224 33.7403 2.34357 33.7403H22.8191V38.0157C22.8191 38.5944 23.2883 39.0635 23.8669 39.0635H26.078V47.9495C26.0765 48.5282 26.5445 48.9986 27.1232 49C27.2761 49.0004 27.4272 48.9673 27.566 48.9031L31.9042 46.9121L36.2424 48.9031C36.3806 48.9661 36.5307 48.9982 36.6825 48.9974C37.2612 48.9974 37.7304 48.5282 37.7304 47.9495V39.0845H39.9518C40.5305 39.0845 40.9997 38.6153 40.9997 38.0366V33.7613H48.1986C49.4197 33.773 50.4189 32.7925 50.4306 31.5715C50.4307 31.5575 50.4307 31.5435 50.4306 31.5293V3.50911C50.4306 2.28808 49.4408 1.2981 48.2196 1.2981ZM35.6451 46.3568L32.3547 44.8479C32.0785 44.7219 31.7613 44.7219 31.485 44.8479L28.1947 46.3569V39.1161L31.1811 42.1025C31.5898 42.5088 32.25 42.5088 32.6586 42.1025L35.6451 39.1161V46.3568ZM39.8366 31.9799L39.2079 32.6086C39.0118 32.8064 38.9024 33.0742 38.904 33.3526V37.0097H35.2469C34.9684 37.0081 34.7007 37.1175 34.5029 37.3136L31.9251 39.8285L29.3369 37.2402C29.1391 37.0442 28.8713 36.9348 28.5929 36.9364H24.9358V33.3317C24.9374 33.0532 24.828 32.7855 24.6319 32.5877L22.0436 29.9994L24.6319 27.4112C24.828 27.2134 24.9374 26.9456 24.9358 26.6672V23.0625H28.5929C28.8713 23.0641 29.1391 22.9547 29.3369 22.7586L31.9251 20.1703L34.5134 22.7586C34.7112 22.9547 34.9789 23.0641 35.2574 23.0625H38.904V26.7196C38.9024 26.998 39.0118 27.2658 39.2079 27.4636L41.7961 30.0518L39.8366 31.9799ZM48.3244 31.5608C48.3244 31.6244 48.2728 31.676 48.2091 31.676H43.0955L43.9966 30.7748C44.403 30.3662 44.403 29.706 43.9966 29.2973L40.9997 26.2061V22.0146C40.9997 21.4359 40.5305 20.9667 39.9518 20.9667H35.6765L32.6167 17.9069C32.208 17.5006 31.5479 17.5006 31.1392 17.9069L28.1632 20.9667H23.8879C23.3092 20.9667 22.84 21.4359 22.84 22.0146V26.2061L19.8221 29.224C19.4158 29.6327 19.4158 30.2928 19.8221 30.7015L20.7233 31.6027H2.34357C2.27991 31.6027 2.22831 31.5511 2.22831 31.4874V3.50911C2.22831 3.44546 2.27991 3.39385 2.34357 3.39385H48.2196C48.2832 3.39385 48.3349 3.44546 48.3349 3.50911L48.3244 31.5608Z" fill="#3035C4"/>
</svg>
