<svg width="59" height="59" viewBox="0 0 59 59" fill="none" xmlns="http://www.w3.org/2000/svg">
<path d="M25.5667 21.6333H27.5333V23.6H25.5667V21.6333Z" fill="#3035C4"/>
<path d="M31.4666 21.6333H33.4333V23.6H31.4666V21.6333Z" fill="#3035C4"/>
<path d="M57.0333 1.96667V0H55.0666V1.96667H53.1V3.93333H55.0666V5.9H57.0333V3.93333H59V1.96667H57.0333Z" fill="#E6514A"/>
<path d="M48.1833 13.7667H50.1499V11.8H52.1166V9.83337H50.1499V7.8667H48.1833V9.83337H46.2166V11.8H48.1833V13.7667Z" fill="#E6514A"/>
<path d="M1.96667 5.9H3.93333V3.93333H5.9V1.96667H3.93333V0H1.96667V1.96667H0V3.93333H1.96667V5.9Z" fill="#E6514A"/>
<path d="M8.85003 13.7667H10.8167V11.8H12.7834V9.83337H10.8167V7.8667H8.85003V9.83337H6.88336V11.8H8.85003V13.7667Z" fill="#E6514A"/>
<path d="M56.05 53.1C55.7892 53.1 55.5391 52.9964 55.3547 52.812C55.1703 52.6276 55.0667 52.3775 55.0667 52.1167C55.0667 51.8559 55.1703 51.6058 55.3547 51.4214C55.5391 51.2369 55.7892 51.1333 56.05 51.1333C56.8324 51.1333 57.5827 50.8225 58.136 50.2693C58.6892 49.7161 59 48.9657 59 48.1833C59 47.401 58.6892 46.6506 58.136 46.0974C57.5827 45.5441 56.8324 45.2333 56.05 45.2333H40.3167V42.2833H48.3505C49.0887 42.2886 49.8016 42.0151 50.3467 41.5173C50.8919 41.0196 51.229 40.3344 51.2907 39.5988L52.1167 30.5718C52.1199 30.4764 52.1133 30.3808 52.097 30.2867L50.7597 23.6295C50.539 22.5135 49.9381 21.5086 49.0595 20.786C48.1809 20.0634 47.0789 19.6678 45.9413 19.6667H45.3415C44.67 19.6545 44.0135 19.8664 43.4757 20.2688C42.938 20.6712 42.5496 21.2413 42.3718 21.889C42.2621 22.3246 42.2532 22.7795 42.3456 23.2191C42.4381 23.6587 42.6295 24.0714 42.9053 24.426C43.1812 24.7805 43.5342 25.0675 43.9376 25.2651C44.341 25.4628 44.7841 25.5659 45.2333 25.5667V32.1353C44.2978 31.6965 43.2774 31.4683 42.244 31.4667C41.0593 31.4762 39.8998 31.8094 38.8908 32.4303C38.0376 31.9164 37.0799 31.6005 36.0883 31.506C35.86 31.4779 35.6301 31.4648 35.4 31.4667H33.4333V30.4047C34.3345 29.8799 35.1232 29.1824 35.7543 28.3522C36.3854 27.522 36.8464 26.5754 37.111 25.5667H37.3667C38.1491 25.5667 38.8994 25.2559 39.4526 24.7026C40.0059 24.1494 40.3167 23.3991 40.3167 22.6167C40.3167 21.8343 40.0059 21.0839 39.4526 20.5307C38.8994 19.9775 38.1491 19.6667 37.3667 19.6667V15.1335L40.3167 14.1502V18.6833H42.2833V12.7833C42.2818 12.5777 42.2168 12.3775 42.0971 12.2103C41.9773 12.043 41.8089 11.9169 41.6147 11.8492L29.8147 7.91584C29.6106 7.8469 29.3894 7.8469 29.1853 7.91584L17.3853 11.8492C17.1886 11.9138 17.0173 12.039 16.8959 12.2067C16.7744 12.3745 16.709 12.5763 16.709 12.7833C16.709 12.9904 16.7744 13.1922 16.8959 13.36C17.0173 13.5277 17.1886 13.6528 17.3853 13.7175L21.6333 15.1335V19.6667C20.8509 19.6667 20.1006 19.9775 19.5474 20.5307C18.9941 21.0839 18.6833 21.8343 18.6833 22.6167C18.6833 23.3991 18.9941 24.1494 19.5474 24.7026C20.1006 25.2559 20.8509 25.5667 21.6333 25.5667H21.889C22.1536 26.5754 22.6146 27.522 23.2457 28.3522C23.8768 29.1824 24.6655 29.8799 25.5667 30.4047V31.4667H23.6C22.3676 31.4669 21.1582 31.7998 20.0993 32.4303C19.0945 31.8083 17.9378 31.4749 16.756 31.4667C15.7223 31.4655 14.7013 31.6939 13.7667 32.1353V25.5667C14.4191 25.557 15.0505 25.3348 15.5652 24.9337C16.0798 24.5326 16.4496 23.9746 16.6183 23.3443C16.73 22.9094 16.7408 22.4546 16.6498 22.0149C16.5588 21.5751 16.3684 21.162 16.0932 20.8071C15.818 20.4522 15.4653 20.165 15.0621 19.9673C14.6588 19.7696 14.2157 19.6668 13.7667 19.6667H13.0587C11.9225 19.6674 10.8216 20.0615 9.94315 20.7822C9.06474 21.5029 8.46303 22.5055 8.24033 23.6197L6.903 30.2867C6.88667 30.3808 6.88008 30.4764 6.88333 30.5718L7.70933 39.5988C7.77101 40.3344 8.10814 41.0196 8.65327 41.5173C9.1984 42.0151 9.91134 42.2886 10.6495 42.2833H18.6833V45.2333H6.88333C5.05776 45.2333 3.30696 45.9585 2.01608 47.2494C0.725206 48.5403 0 50.2911 0 52.1167C0 53.9422 0.725206 55.6931 2.01608 56.9839C3.30696 58.2748 5.05776 59 6.88333 59H56.05C56.8324 59 57.5827 58.6892 58.136 58.136C58.6892 57.5827 59 56.8324 59 56.05C59 55.2676 58.6892 54.5173 58.136 53.964C57.5827 53.4108 56.8324 53.1 56.05 53.1ZM21.6333 23.6C21.3725 23.6 21.1224 23.4964 20.938 23.312C20.7536 23.1276 20.65 22.8775 20.65 22.6167C20.65 22.3559 20.7536 22.1058 20.938 21.9214C21.1224 21.7369 21.3725 21.6333 21.6333 21.6333V23.6ZM44.5352 23.2952C44.4129 23.1787 44.3245 23.0311 44.2795 22.8684C44.2345 22.7056 44.2345 22.5336 44.2795 22.3708C44.3535 22.1499 44.4968 21.9588 44.6882 21.8259C44.8795 21.6931 45.1087 21.6255 45.3415 21.6333H45.9413C46.6238 21.6354 47.2846 21.8735 47.8115 22.3073C48.3384 22.741 48.6991 23.3437 48.8323 24.013L49.147 25.5667H47.2V24.5833C47.2 24.3225 47.0964 24.0724 46.912 23.888C46.7276 23.7036 46.4775 23.6 46.2167 23.6H45.2333C45.1021 23.6012 44.972 23.5746 44.8517 23.5221C44.7314 23.4696 44.6236 23.3922 44.5352 23.2952ZM35.3312 36.7472L36.5997 33.5907C37.2171 33.7454 37.7983 34.0193 38.3107 34.397C38.4809 34.5247 38.6879 34.5937 38.9007 34.5937C39.1134 34.5937 39.3205 34.5247 39.4907 34.397C40.2882 33.7876 41.2601 33.4499 42.2637 33.4333H42.2932C43.4989 33.4384 44.6608 33.8863 45.5578 34.692C45.6983 34.8221 45.8743 34.9075 46.0634 34.9373C46.2525 34.967 46.4462 34.9398 46.6198 34.8592C46.7924 34.7816 46.9389 34.656 47.0418 34.4972C47.1447 34.3385 47.1996 34.1535 47.2 33.9643V27.5333H49.5403L50.1402 30.5325L49.3338 39.4218C49.3117 39.667 49.1984 39.8949 49.0163 40.0606C48.8343 40.2263 48.5967 40.3177 48.3505 40.3167H39.3333C39.0725 40.3167 38.8224 40.4203 38.638 40.6047C38.4536 40.7891 38.35 41.0392 38.35 41.3V45.2333H33.276L31.7223 36.5407L31.7322 36.521L34.102 37.3175C34.2043 37.3475 34.3101 37.364 34.4167 37.3667C34.6136 37.3669 34.8061 37.3079 34.9691 37.1975C35.1322 37.087 35.2583 36.9301 35.3312 36.7472ZM34.5347 33.4333L33.8463 35.1542L32.1648 34.5937L31.801 33.8758L32.686 33.4333H34.5347ZM35.4 18.6833H23.6V15.7825L29.1853 17.6508C29.39 17.7164 29.61 17.7164 29.8147 17.6508L35.4 15.7825V18.6833ZM38.35 22.6167C38.35 22.8775 38.2464 23.1276 38.062 23.312C37.8776 23.4964 37.6275 23.6 37.3667 23.6V21.6333C37.6275 21.6333 37.8776 21.7369 38.062 21.9214C38.2464 22.1058 38.35 22.3559 38.35 22.6167ZM20.8073 12.7833L29.5 9.88251L38.1927 12.7833L29.5 15.6842L20.8073 12.7833ZM23.6 23.6V20.65H35.4V23.6C35.4 25.1648 34.7784 26.6655 33.6719 27.7719C32.5655 28.8784 31.0648 29.5 29.5 29.5C27.9352 29.5 26.4345 28.8784 25.3281 27.7719C24.2216 26.6655 23.6 25.1648 23.6 23.6ZM28.9887 38.1828C29.137 38.2915 29.3161 38.3501 29.5 38.3501C29.6839 38.3501 29.863 38.2915 30.0113 38.1828L31.2798 45.2333H27.7202L28.9887 38.1828ZM28.733 35.2033L29.1263 34.4167H29.8737L30.267 35.2033L29.5 35.9802L28.733 35.2033ZM30.2473 32.45H28.7527L27.5333 31.8403V31.211C28.8223 31.5519 30.1777 31.5519 31.4667 31.211V31.8403L30.2473 32.45ZM26.314 33.4333L27.199 33.8758L26.8352 34.5937L25.1537 35.1542L24.4653 33.4333H26.314ZM10.1677 24.0032C10.3032 23.3358 10.6649 22.7356 11.1915 22.3039C11.7182 21.8722 12.3777 21.6353 13.0587 21.6333H13.7667C13.9157 21.6366 14.0621 21.6731 14.1952 21.7401C14.3284 21.8072 14.4449 21.9031 14.5363 22.0208C14.6276 22.1386 14.6916 22.2752 14.7235 22.4208C14.7553 22.5665 14.7543 22.7173 14.7205 22.8625C14.6465 23.0834 14.5032 23.2745 14.3118 23.4074C14.1205 23.5403 13.8913 23.6078 13.6585 23.6H12.7833C12.5225 23.6 12.2724 23.7036 12.088 23.888C11.9036 24.0724 11.8 24.3225 11.8 24.5833V25.5667H9.853L10.1677 24.0032ZM10.6495 40.3167C10.4033 40.3177 10.1658 40.2263 9.98369 40.0606C9.80162 39.8949 9.68832 39.667 9.66617 39.4218L8.85983 30.5325L9.45967 27.5333H11.8V33.9643C11.8004 34.1543 11.8559 34.3401 11.9597 34.4993C12.0636 34.6584 12.2112 34.7841 12.385 34.861C12.5587 34.938 12.751 34.963 12.9386 34.933C13.1262 34.903 13.3011 34.8193 13.4422 34.692C14.3392 33.8863 15.5011 33.4384 16.7068 33.4333H16.7363C17.7399 33.4499 18.7118 33.7876 19.5093 34.397C19.677 34.5262 19.8827 34.5962 20.0944 34.5962C20.3061 34.5962 20.5118 34.5262 20.6795 34.397C21.1982 34.0199 21.7864 33.7492 22.4102 33.6005L23.6688 36.7472C23.7417 36.9301 23.8678 37.087 24.0309 37.1975C24.1939 37.3079 24.3864 37.3669 24.5833 37.3667C24.6899 37.364 24.7957 37.3475 24.898 37.3175L27.2678 36.521L27.2777 36.5407L25.724 45.2333H20.65V41.3C20.65 41.0392 20.5464 40.7891 20.362 40.6047C20.1776 40.4203 19.9275 40.3167 19.6667 40.3167H10.6495ZM56.05 57.0333H6.88333C5.57935 57.0333 4.32878 56.5153 3.40672 55.5933C2.48467 54.6712 1.96667 53.4207 1.96667 52.1167C1.96667 50.8127 2.48467 49.5621 3.40672 48.6401C4.32878 47.718 5.57935 47.2 6.88333 47.2H56.05C56.3108 47.2 56.5609 47.3036 56.7453 47.488C56.9297 47.6724 57.0333 47.9225 57.0333 48.1833C57.0333 48.4441 56.9297 48.6943 56.7453 48.8787C56.5609 49.0631 56.3108 49.1667 56.05 49.1667H6.88333C6.10094 49.1667 5.3506 49.4775 4.79737 50.0307C4.24414 50.5839 3.93333 51.3343 3.93333 52.1167C3.93333 52.8991 4.24414 53.6494 4.79737 54.2026C5.3506 54.7559 6.10094 55.0667 6.88333 55.0667H56.05C56.3108 55.0667 56.5609 55.1703 56.7453 55.3547C56.9297 55.5391 57.0333 55.7892 57.0333 56.05C57.0333 56.3108 56.9297 56.5609 56.7453 56.7453C56.5609 56.9297 56.3108 57.0333 56.05 57.0333ZM53.277 53.1H6.88333C6.62254 53.1 6.37242 52.9964 6.18801 52.812C6.0036 52.6276 5.9 52.3775 5.9 52.1167C5.9 51.8559 6.0036 51.6058 6.18801 51.4214C6.37242 51.2369 6.62254 51.1333 6.88333 51.1333H53.277C53.041 51.7677 53.041 52.4657 53.277 53.1Z" fill="#3035C4"/>
</svg>
