<svg width="59" height="59" viewBox="0 0 59 59" fill="none" xmlns="http://www.w3.org/2000/svg">
<path d="M58.9213 43.8763L54.0833 32.2533V2.95C54.081 2.16833 53.7694 1.41934 53.2167 0.866614C52.664 0.313887 51.915 0.00233452 51.1333 0H7.86667C7.085 0.00233452 6.33601 0.313887 5.78328 0.866614C5.23055 1.41934 4.919 2.16833 4.91667 2.95V32.2533L0.0786666 43.8763C0.0282796 43.9946 0.00155365 44.1215 0 44.25V48.1833C0.00233452 48.965 0.313887 49.714 0.866614 50.2667C1.41934 50.8194 2.16833 51.131 2.95 51.1333H38.35V49.1667H2.95C2.6892 49.1667 2.43909 49.0631 2.25468 48.8787C2.07027 48.6942 1.96667 48.4441 1.96667 48.1833V45.2333H35.4V43.2667H2.45833L6.55883 33.4333H52.4412L57.0333 44.4467V48.1833C57.0333 48.4441 56.9297 48.6942 56.7453 48.8787C56.5609 49.0631 56.3108 49.1667 56.05 49.1667H54.0833V51.1333H56.05C56.8317 51.131 57.5807 50.8194 58.1334 50.2667C58.6861 49.714 58.9977 48.965 59 48.1833V44.25C58.9984 44.1215 58.9717 43.9946 58.9213 43.8763ZM52.1167 31.4667H6.88333V2.95C6.88333 2.6892 6.98693 2.43909 7.17135 2.25468C7.35576 2.07027 7.60587 1.96667 7.86667 1.96667H51.1333C51.3941 1.96667 51.6442 2.07027 51.8287 2.25468C52.0131 2.43909 52.1167 2.6892 52.1167 2.95V31.4667Z" fill="#3035C4"/>
<path d="M7.8667 39.3334H9.83337V41.3H7.8667V39.3334Z" fill="#3035C4"/>
<path d="M11.8 39.3334H13.7667V41.3H11.8V39.3334Z" fill="#3035C4"/>
<path d="M12.7833 35.4H14.75V37.3667H12.7833V35.4Z" fill="#3035C4"/>
<path d="M8.84998 35.4H10.8166V37.3667H8.84998V35.4Z" fill="#3035C4"/>
<path d="M16.7167 35.4H18.6833V37.3667H16.7167V35.4Z" fill="#3035C4"/>
<path d="M20.65 35.4H22.6167V37.3667H20.65V35.4Z" fill="#3035C4"/>
<path d="M24.5833 35.4H26.55V37.3667H24.5833V35.4Z" fill="#3035C4"/>
<path d="M28.5167 35.4H30.4833V37.3667H28.5167V35.4Z" fill="#3035C4"/>
<path d="M32.45 35.4H34.4167V37.3667H32.45V35.4Z" fill="#3035C4"/>
<path d="M36.3833 35.4H38.35V37.3667H36.3833V35.4Z" fill="#3035C4"/>
<path d="M15.7333 39.3334H19.6667V41.3H15.7333V39.3334Z" fill="#3035C4"/>
<path d="M21.6333 39.3334H37.3666V41.3H21.6333V39.3334Z" fill="#3035C4"/>
<path d="M47.2 7.86668H44.25V4.91668C44.25 4.65589 44.1464 4.40577 43.962 4.22136C43.7776 4.03695 43.5274 3.93335 43.2666 3.93335H33.4333C32.6674 3.93631 31.9129 4.11837 31.2299 4.46497C30.547 4.81157 29.9545 5.31311 29.5 5.92952C29.0454 5.31311 28.453 4.81157 27.77 4.46497C27.0871 4.11837 26.3325 3.93631 25.5666 3.93335H15.7333C15.4725 3.93335 15.2224 4.03695 15.038 4.22136C14.8536 4.40577 14.75 4.65589 14.75 4.91668V7.86668H11.8C11.5392 7.86668 11.2891 7.97028 11.1047 8.1547C10.9203 8.33911 10.8167 8.58922 10.8167 8.85002V28.5167C10.8167 28.7775 10.9203 29.0276 11.1047 29.212C11.2891 29.3964 11.5392 29.5 11.8 29.5H47.2C47.4608 29.5 47.7109 29.3964 47.8953 29.212C48.0797 29.0276 48.1833 28.7775 48.1833 28.5167V8.85002C48.1833 8.58922 48.0797 8.33911 47.8953 8.1547C47.7109 7.97028 47.4608 7.86668 47.2 7.86668ZM14.75 27.5333H12.7833V9.83335H14.75V27.5333ZM16.7167 27.5333V25.5667H25.5666C26.1765 25.5684 26.771 25.7581 27.269 26.1101C27.767 26.462 28.1443 26.9591 28.3495 27.5333H16.7167ZM28.5166 24.6129C27.6719 23.9591 26.6348 23.603 25.5666 23.6H16.7167V5.90002H25.5666C26.3483 5.90235 27.0973 6.2139 27.65 6.76663C28.2028 7.31936 28.5143 8.06835 28.5166 8.85002V24.6129ZM42.2833 27.5333H30.6505C30.8556 26.9591 31.233 26.462 31.731 26.1101C32.229 25.7581 32.8235 25.5684 33.4333 25.5667H42.2833V27.5333ZM42.2833 23.6H33.4333C32.3652 23.603 31.328 23.9591 30.4833 24.6129V8.85002C30.4857 8.06835 30.7972 7.31936 31.3499 6.76663C31.9027 6.2139 32.6516 5.90235 33.4333 5.90002H42.2833V23.6ZM46.2166 27.5333H44.25V9.83335H46.2166V27.5333Z" fill="#3035C4"/>
<path d="M18.6833 7.8667H26.55V9.83337H18.6833V7.8667Z" fill="#3035C4"/>
<path d="M18.6833 11.8H26.55V13.7667H18.6833V11.8Z" fill="#3035C4"/>
<path d="M18.6833 15.7334H26.55V17.7001H18.6833V15.7334Z" fill="#3035C4"/>
<path d="M18.6833 19.6666H26.55V21.6333H18.6833V19.6666Z" fill="#3035C4"/>
<path d="M32.45 7.8667H40.3167V9.83337H32.45V7.8667Z" fill="#3035C4"/>
<path d="M32.45 11.8H40.3167V13.7667H32.45V11.8Z" fill="#3035C4"/>
<path d="M32.45 15.7334H40.3167V17.7001H32.45V15.7334Z" fill="#3035C4"/>
<path d="M32.45 19.6666H40.3167V21.6333H32.45V19.6666Z" fill="#3035C4"/>
<path d="M46.2167 39.3334C45.4387 39.3334 44.6782 39.5641 44.0314 39.9963C43.3846 40.4285 42.8804 41.0428 42.5827 41.7615C42.285 42.4802 42.2071 43.2711 42.3589 44.0341C42.5107 44.7971 42.8853 45.4979 43.4354 46.048C43.9855 46.5981 44.6863 46.9727 45.4493 47.1245C46.2123 47.2762 47.0032 47.1983 47.7219 46.9006C48.4406 46.6029 49.0549 46.0988 49.4871 45.452C49.9193 44.8051 50.15 44.0446 50.15 43.2667C50.15 42.2235 49.7356 41.2231 48.9979 40.4854C48.2603 39.7478 47.2598 39.3334 46.2167 39.3334ZM46.2167 45.2334C45.8277 45.2334 45.4475 45.118 45.124 44.9019C44.8006 44.6858 44.5485 44.3787 44.3997 44.0193C44.2508 43.66 44.2119 43.2645 44.2878 42.883C44.3637 42.5015 44.551 42.1511 44.826 41.8761C45.1011 41.601 45.4515 41.4137 45.833 41.3378C46.2145 41.2619 46.6099 41.3009 46.9693 41.4497C47.3286 41.5986 47.6358 41.8507 47.8519 42.1741C48.068 42.4975 48.1833 42.8777 48.1833 43.2667C48.1833 43.7883 47.9761 44.2885 47.6073 44.6574C47.2385 45.0262 46.7383 45.2334 46.2167 45.2334Z" fill="#E6514A"/>
<path d="M53.4521 41.1319C53.2251 40.9553 53.0227 40.7493 52.8502 40.5192C52.8003 40.2172 52.7943 39.9095 52.8325 39.6057C52.917 39.1903 52.91 38.7614 52.812 38.3489C52.714 37.9365 52.5274 37.5503 52.2652 37.2172C51.9325 36.9549 51.5466 36.7684 51.1344 36.6708C50.7222 36.5731 50.2936 36.5666 49.8786 36.6518C49.5745 36.6903 49.2664 36.684 48.9641 36.6331C48.7342 36.4609 48.5284 36.2584 48.3525 36.0313C48.1155 35.6678 47.8011 35.361 47.432 35.1329C47.0628 34.9048 46.6478 34.761 46.2167 34.7117C45.7855 34.761 45.3706 34.9048 45.0014 35.1329C44.6322 35.361 44.3179 35.6678 44.0809 36.0313C43.9049 36.2584 43.6992 36.4609 43.4693 36.6331C43.167 36.684 42.8589 36.6903 42.5548 36.6518C42.1398 36.567 41.7113 36.5736 41.2991 36.6712C40.8869 36.7689 40.501 36.9552 40.1682 37.2172C39.9059 37.5503 39.7193 37.9365 39.6213 38.3489C39.5234 38.7614 39.5164 39.1903 39.6008 39.6057C39.6391 39.9095 39.6331 40.2172 39.5831 40.5192C39.4107 40.7493 39.2083 40.9553 38.9813 41.1319C38.6179 41.3688 38.3112 41.6829 38.0832 42.0519C37.8551 42.4209 37.7111 42.8357 37.6617 43.2667C37.7111 43.6976 37.8551 44.1124 38.0832 44.4814C38.3112 44.8504 38.6179 45.1646 38.9813 45.4015C39.2083 45.578 39.4107 45.784 39.5831 46.0141C39.6331 46.3162 39.6391 46.6239 39.6008 46.9276C39.5164 47.3431 39.5234 47.7719 39.6213 48.1844C39.7193 48.5969 39.9059 48.9831 40.1682 49.3161C40.4765 49.616 40.8736 49.8081 41.3 49.8639V58.0167C41.3 58.1993 41.3509 58.3783 41.4469 58.5336C41.5429 58.689 41.6803 58.8145 41.8436 58.8962C42.0069 58.9779 42.1898 59.0124 42.3717 58.996C42.5535 58.9796 42.7273 58.9129 42.8733 58.8033L46.2167 56.2958L49.56 58.8033C49.7061 58.9129 49.8798 58.9796 50.0617 58.996C50.2436 59.0124 50.4264 58.9779 50.5898 58.8962C50.7531 58.8145 50.8905 58.689 50.9865 58.5336C51.0825 58.3783 51.1333 58.1993 51.1333 58.0167V49.8639C51.5599 49.8085 51.9571 49.6163 52.2652 49.3161C52.5274 48.9831 52.714 48.5969 52.812 48.1844C52.91 47.7719 52.917 47.3431 52.8325 46.9276C52.7943 46.6239 52.8003 46.3162 52.8502 46.0141C53.0227 45.784 53.2251 45.578 53.4521 45.4015C53.8154 45.1646 54.1221 44.8504 54.3502 44.4814C54.5783 44.1124 54.7222 43.6976 54.7717 43.2667C54.7222 42.8357 54.5783 42.4209 54.3502 42.0519C54.1221 41.6829 53.8154 41.3688 53.4521 41.1319ZM46.8067 54.28C46.6365 54.1523 46.4294 54.0833 46.2167 54.0833C46.0039 54.0833 45.7969 54.1523 45.6267 54.28L43.2667 56.05V49.8658C43.3355 49.8678 43.4037 49.8794 43.4693 49.9002C43.6992 50.0725 43.9049 50.2749 44.0809 50.502C44.3179 50.8656 44.6322 51.1723 45.0014 51.4004C45.3706 51.6285 45.7855 51.7723 46.2167 51.8217C46.6478 51.7723 47.0628 51.6285 47.432 51.4004C47.8011 51.1723 48.1155 50.8656 48.3525 50.502C48.5284 50.2749 48.7342 50.0725 48.9641 49.9002C49.0297 49.8794 49.0979 49.8678 49.1667 49.8658V56.05L46.8067 54.28ZM52.158 43.9216C51.6864 44.2765 51.3023 44.7346 51.035 45.2609C50.8458 45.8367 50.7897 46.4479 50.8708 47.0486C50.8885 47.3377 50.918 47.8225 50.9091 47.9001C50.6091 47.9504 50.3034 47.9567 50.0015 47.9188C49.4006 47.837 48.7889 47.8932 48.2128 48.083C47.6864 48.3508 47.2282 48.7357 46.8735 49.208C46.6846 49.4448 46.4728 49.6625 46.2413 49.858C45.983 49.6778 45.7544 49.4585 45.5637 49.208C45.2083 48.7361 44.7495 48.352 44.2225 48.085C43.8591 47.9473 43.4722 47.8825 43.0838 47.8942C42.8625 47.8942 42.6423 47.908 42.4338 47.9208C42.1388 47.9385 41.6589 47.968 41.5822 47.9591C41.5329 47.6587 41.5269 47.3527 41.5645 47.0505C41.6457 46.4499 41.5895 45.8387 41.4003 45.2628C41.1325 44.7364 40.7477 44.2782 40.2754 43.9235C40.0389 43.7346 39.8212 43.5232 39.6254 43.2922C39.8052 43.0334 40.0245 42.8045 40.2754 42.6137C40.7472 42.2583 41.1313 41.7994 41.3983 41.2725C41.5876 40.6967 41.6437 40.0854 41.5626 39.4848C41.5449 39.1957 41.5154 38.7109 41.5242 38.6332C41.8242 38.5829 42.13 38.5766 42.4318 38.6145C43.0328 38.6963 43.6445 38.6402 44.2205 38.4503C44.747 38.1825 45.2051 37.7977 45.5598 37.3254C45.7488 37.0885 45.9606 36.8708 46.1921 36.6754C46.4503 36.8555 46.6789 37.0748 46.8696 37.3254C47.2251 37.7972 47.6839 38.1813 48.2109 38.4483C48.7869 38.6381 49.3986 38.6942 49.9996 38.6126C50.2946 38.5939 50.7725 38.5624 50.8511 38.5742C50.9005 38.8747 50.9064 39.1807 50.8688 39.4828C50.7877 40.0835 50.8438 40.6947 51.033 41.2705C51.3009 41.797 51.6857 42.2551 52.158 42.6098C52.3998 42.7984 52.6151 43.0187 52.7981 43.2647C52.6152 43.5114 52.3999 43.7324 52.158 43.9216Z" fill="#E6514A"/>
</svg>
