<svg width="54" height="53" viewBox="0 0 54 53" fill="none" xmlns="http://www.w3.org/2000/svg">
<path d="M21.9065 49.0073C21.4773 49.0073 21.1295 49.3552 21.1295 49.7844V52.2229C21.1295 52.652 21.4773 52.9999 21.9065 52.9999C22.3358 52.9999 22.6836 52.652 22.6836 52.2229V49.7844C22.6836 49.3552 22.3358 49.0073 21.9065 49.0073ZM5.37391 49.0073C4.94468 49.0073 4.59688 49.3552 4.59688 49.7844V52.2229C4.59688 52.652 4.94468 52.9999 5.37391 52.9999C5.80315 52.9999 6.15095 52.652 6.15095 52.2229V49.7844C6.15095 49.3552 5.80315 49.0073 5.37391 49.0073ZM47.6523 49.0073C47.223 49.0073 46.8752 49.3552 46.8752 49.7844V52.2229C46.8752 52.652 47.223 52.9999 47.6523 52.9999C48.0815 52.9999 48.4293 52.652 48.4293 52.2229V49.7844C48.4293 49.3552 48.0815 49.0073 47.6523 49.0073ZM21.5347 39.7129L17.7227 38.6417C17.6962 38.6323 17.6694 38.6241 17.6422 38.6176C17.2202 38.4845 16.9278 38.0896 16.9278 37.6448V37.489C17.5983 37.2712 18.2131 36.898 18.7262 36.3856L19.3775 35.7348C20.3845 34.7292 20.9529 33.403 20.9912 31.9866H21.8706C22.9959 31.9866 23.9115 31.0716 23.9115 29.947V27.9767C23.9115 26.8521 22.9959 25.937 21.8706 25.937H20.9949V21.3409C20.9888 18.6861 18.8209 16.4194 16.065 16.4152H11.2346C8.51624 16.4152 6.3047 18.6248 6.3047 21.3409V25.937H5.42903C4.30368 25.937 3.38812 26.8521 3.38812 27.9767V29.947C3.38812 31.0716 4.30368 31.9866 5.42903 31.9866H6.30843C6.34666 33.403 6.91513 34.7292 7.92197 35.7347L8.57343 36.3857C9.08648 36.8982 9.70127 37.2714 10.3718 37.4891V37.6427C10.3718 38.0981 10.0653 38.5024 9.62678 38.6259L5.76378 39.7131C2.42211 40.3916 -6.10352e-05 43.3376 -6.10352e-05 46.7299V52.223C-6.10352e-05 52.6521 0.34774 53 0.776974 53C1.20621 53 1.55401 52.6521 1.55401 52.223V46.7299C1.54313 44.106 3.50136 41.708 6.15623 41.2171L9.72883 40.2117C10.5425 40.6669 11.9206 41.2474 13.6577 41.2474C15.1628 41.2474 16.7265 40.7069 17.5704 40.2132L21.1425 41.2171C23.7378 41.7005 25.7617 44.0488 25.7457 46.7309V52.223C25.7457 52.6521 26.0935 53 26.5227 53C26.952 53 27.2998 52.6521 27.2998 52.223V46.7309C27.2998 43.3381 24.8771 40.3917 21.5347 39.7129ZM20.995 27.4912H21.8707C22.1391 27.4912 22.3575 27.7091 22.3575 27.9768V29.9471C22.3575 30.2148 22.1391 30.4327 21.8707 30.4327H20.995V27.4912ZM6.3047 30.4326H5.42903C5.16059 30.4326 4.94219 30.2147 4.94219 29.947V27.9767C4.94219 27.709 5.16059 27.4911 5.42903 27.4911H6.3047V30.4326ZM19.2633 20.2642C19.3777 20.6026 19.4408 20.9645 19.4408 21.341V25.8947C19.0541 25.8312 18.5967 25.6908 18.1413 25.4002C17.6481 25.0853 17.3162 24.6935 17.1007 24.3614C18.1728 23.2095 18.9109 21.8038 19.2633 20.2642ZM7.85877 21.341C7.85877 19.4819 9.37316 17.9693 11.2346 17.9693H16.065C16.7578 17.9693 17.4024 18.1791 17.9389 18.5381C17.8906 19.4985 17.6542 20.7902 16.8916 22.0673C15.8127 23.8741 14.5076 25.0649 11.9589 25.8387C10.361 26.3239 8.92103 26.2688 7.85887 26.0831L7.85877 21.341ZM9.67185 35.2862L9.02028 34.6353C8.27132 33.8873 7.85887 32.8925 7.85887 31.8345V27.6578C9.07623 27.8383 10.6634 27.8562 12.4105 27.3257C13.9278 26.865 15.1057 26.1252 15.9521 25.4368C16.2688 25.8728 16.7062 26.3278 17.3054 26.7104C18.068 27.197 18.8339 27.3932 19.4409 27.4626V31.8345C19.4409 32.8925 19.0285 33.8873 18.2794 34.6354L17.6281 35.2861C17.0656 35.8479 16.3179 36.1572 15.5227 36.1572H11.7772C10.9817 36.1572 10.234 35.8479 9.67185 35.2862ZM13.9083 39.6883C12.8972 39.7289 12.0256 39.5186 11.3499 39.2588C11.6979 38.8281 11.9071 38.2879 11.9229 37.7113H15.3767C15.392 38.29 15.6021 38.832 15.9516 39.2636C15.3832 39.483 14.6958 39.6567 13.9083 39.6883ZM31.1197 49.0073C30.6904 49.0073 30.3426 49.3552 30.3426 49.7844V52.2229C30.3426 52.652 30.6904 52.9999 31.1197 52.9999C31.5489 52.9999 31.8967 52.652 31.8967 52.2229V49.7844C31.8967 49.3552 31.5489 49.0073 31.1197 49.0073ZM47.7187 39.818C48.8596 38.8629 49.5527 37.4363 49.5527 35.8707V26.5722C49.5527 23.8581 48.4955 21.3068 46.5758 19.3882C44.6575 17.4709 42.108 16.4153 39.3958 16.4153H39.3901C33.7925 16.4183 29.2385 20.9747 29.2385 26.5724V35.8762C29.2385 37.4181 29.9433 38.8538 31.0787 39.8153C29.8254 40.1495 28.6937 40.8078 27.7841 41.7384C27.4841 42.0453 27.4897 42.5373 27.7967 42.8372C28.1034 43.137 28.5953 43.1318 28.8954 42.8247C30.2821 41.2292 33.5905 40.858 35.4746 40.2117C36.2883 40.6669 37.6663 41.2474 39.4035 41.2474C40.9074 41.2474 42.4729 40.7067 43.3161 40.2132C47.8831 41.4154 51.2239 42.0078 51.4915 46.7308V52.2229C51.4915 52.652 51.8393 52.9999 52.2685 52.9999C52.6977 52.9999 53.0455 52.652 53.0455 52.2229V46.7308C53.0455 43.4885 50.8321 40.6553 47.7187 39.818ZM47.9986 30.5942C47.9986 30.862 47.7826 31.0799 47.5171 31.0799H46.6481V28.1379H47.5171C47.7826 28.1379 47.9986 28.3559 47.9986 28.6237V30.5942ZM30.7926 26.5724C30.7926 21.8312 34.6498 17.9719 39.3909 17.9693H39.3958C41.6927 17.9693 43.8525 18.8635 45.4772 20.4874C47.1032 22.1126 47.9986 24.2735 47.9986 26.5724V26.6439C47.8439 26.6061 47.6833 26.5839 47.5171 26.5839H46.6382C46.6123 26.415 46.532 26.2579 46.4065 26.1386C46.2524 25.9919 46.0455 25.9148 45.8321 25.9256C45.4259 25.9461 44.6265 25.9038 43.8331 25.3916C43.0915 24.9128 42.7185 24.2531 42.5623 23.9025C42.4582 23.6689 42.2458 23.5015 41.9945 23.4548C41.7432 23.4082 41.4848 23.4881 41.3038 23.6686C40.6044 24.3663 39.4153 25.3072 37.7229 25.8271C35.8365 26.4066 34.1721 26.2124 33.1077 25.9475C32.8758 25.8898 32.6299 25.942 32.4416 26.0893C32.2845 26.2121 32.1829 26.3896 32.1531 26.5838H31.2741C31.108 26.5838 30.9473 26.606 30.7926 26.6438V26.5724ZM45.0941 27.4491V31.8089C45.0941 32.8653 44.6874 33.8581 43.949 34.6043L43.3067 35.2535C42.7548 35.8113 42.0215 36.1185 41.242 36.1185H37.5492C36.7697 36.1185 36.0363 35.8113 35.4844 35.2535L34.8421 34.6043C34.1037 33.8581 33.697 32.8654 33.697 31.8089V27.6467C34.8974 27.8251 36.4599 27.841 38.1792 27.3128C39.6695 26.855 40.8278 26.1215 41.6623 25.4372C41.9742 25.8689 42.4036 26.3185 42.9901 26.6972C43.7407 27.1819 44.4948 27.3786 45.0941 27.4491ZM30.7926 28.6237C30.7926 28.3559 31.0086 28.1379 31.2741 28.1379H32.1431V31.0799H31.2741C31.0086 31.0799 30.7926 30.862 30.7926 30.5942V28.6237ZM36.1176 37.6427C36.1176 38.0981 35.8111 38.5024 35.3725 38.6259L33.148 39.2519C31.7512 38.7371 30.7926 37.3791 30.7926 35.876V32.5739C30.9473 32.6117 31.108 32.6339 31.2741 32.6339H32.2038C32.3749 33.7893 32.9045 34.8555 33.7374 35.6973L34.3798 36.3465C34.8765 36.8485 35.47 37.2169 36.1175 37.4365L36.1176 37.6427ZM39.6541 39.6883C38.6429 39.7289 37.7714 39.5186 37.0957 39.2588C37.4515 38.8184 37.6633 38.2637 37.6703 37.6726H41.1207C41.1273 38.2659 41.34 38.8224 41.6973 39.2635C41.1289 39.483 40.4416 39.6567 39.6541 39.6883ZM45.6345 39.2505C45.5659 39.2299 43.4972 38.6521 43.3877 38.6176C42.9658 38.4844 42.6737 38.0895 42.6737 37.6448V37.4366C43.3212 37.217 43.9146 36.8487 44.4113 36.3466C45.4637 35.283 46.3947 34.1711 46.5873 32.6341H47.517C47.6832 32.6341 47.8438 32.6118 47.9985 32.574V35.8708C47.9986 37.3974 47.0554 38.7346 45.6345 39.2505Z" fill="#3035C4"/>
<path d="M6.82272 5.23204H12.2403C12.6695 5.23204 13.0173 4.88413 13.0173 4.455C13.0173 4.02587 12.6695 3.67797 12.2403 3.67797H6.82272C6.39349 3.67797 6.04569 4.02587 6.04569 4.455C6.04569 4.88413 6.39359 5.23204 6.82272 5.23204ZM3.88511 11.9145C4.31435 11.9145 4.66215 11.5666 4.66215 11.1375C4.66215 10.7084 4.31435 10.3605 3.88511 10.3605C2.59979 10.3605 1.55401 9.31478 1.55401 8.02936V3.88517C1.55401 2.59975 2.59979 1.55407 3.88511 1.55407H15.7996C17.085 1.55407 18.1308 2.59975 18.1308 3.88517V8.02936C18.1308 9.31478 17.085 10.3605 15.7996 10.3605H15.3716C14.4177 10.3605 13.6415 11.1365 13.6413 12.0904L13.6412 12.4442L12.2456 10.9216C11.9187 10.5651 11.4537 10.3605 10.97 10.3605H7.25226C6.82303 10.3605 6.47523 10.7084 6.47523 11.1375C6.47523 11.5666 6.82303 11.9145 7.25226 11.9145H10.9701C11.0194 11.9145 11.0669 11.9354 11.1 11.9716L13.1254 14.1813C13.462 14.549 13.9799 14.6639 14.4356 14.4866C14.8969 14.3072 15.195 13.8713 15.195 13.3765L15.1953 12.0907C15.1953 11.9935 15.2745 11.9145 15.3716 11.9145H15.7996C17.942 11.9145 19.6848 10.1717 19.6848 8.02936V3.88517C19.6848 1.74284 17.942 0 15.7996 0H3.88511C1.74278 0 -6.10352e-05 1.74284 -6.10352e-05 3.88517V8.02936C-6.10352e-05 10.1717 1.74278 11.9145 3.88511 11.9145ZM6.82272 8.34017H12.2403C12.6695 8.34017 13.0173 7.99227 13.0173 7.56314C13.0173 7.13401 12.6695 6.78611 12.2403 6.78611H6.82272C6.39349 6.78611 6.04569 7.13401 6.04569 7.56314C6.04569 7.99227 6.39359 8.34017 6.82272 8.34017ZM49.1604 0H37.2458C35.1035 0 33.3606 1.74284 33.3606 3.88517V8.02936C33.3606 10.1717 35.1035 11.9145 37.2458 11.9145C37.4065 11.9145 37.8528 11.811 37.8501 12.0908L37.8505 13.3764C37.8505 13.8714 38.1485 14.3073 38.6099 14.4867C39.0648 14.6637 39.5834 14.549 39.9202 14.1813L41.9453 11.9717C41.9786 11.9354 42.026 11.9145 42.0753 11.9145H49.1604C51.3027 11.9145 53.0455 10.1717 53.0455 8.02936V3.88517C53.0455 1.74284 51.3027 0 49.1604 0ZM51.4915 8.02936C51.4915 9.31478 50.4457 10.3605 49.1604 10.3605H42.0753C41.5916 10.3605 41.1267 10.565 40.7997 10.9217L39.4042 12.4442L39.4041 12.0904C39.4039 11.1365 38.6277 10.3605 37.6738 10.3605H37.2458C35.9605 10.3605 34.9147 9.31478 34.9147 8.02936V3.88517C34.9147 2.59975 35.9605 1.55407 37.2458 1.55407H49.1604C50.4457 1.55407 51.4915 2.59975 51.4915 3.88517V8.02936ZM46.2227 3.67797H40.8052C40.3759 3.67797 40.0281 4.02587 40.0281 4.455C40.0281 4.88413 40.3759 5.23204 40.8052 5.23204H46.2227C46.652 5.23204 46.9998 4.88413 46.9998 4.455C46.9998 4.02587 46.6519 3.67797 46.2227 3.67797ZM46.2227 6.78611H40.8052C40.3759 6.78611 40.0281 7.13401 40.0281 7.56314C40.0281 7.99227 40.3759 8.34017 40.8052 8.34017H46.2227C46.652 8.34017 46.9998 7.99227 46.9998 7.56314C46.9998 7.13401 46.6519 6.78611 46.2227 6.78611Z" fill="#E6514A"/>
</svg>
