<svg width="38" height="38" viewBox="0 0 38 38" fill="none" xmlns="http://www.w3.org/2000/svg">
<rect width="38" height="38" rx="19" fill="#E6514A"/>
<path d="M28.5516 24.819L25.4629 21.723C24.8477 21.1089 23.8289 21.1275 23.1923 21.7659L21.6362 23.3251C21.5379 23.2708 21.4361 23.2141 21.3291 23.1539C20.3465 22.6082 19.0015 21.8602 17.5863 20.4407C16.1668 19.0182 15.4199 17.6682 14.8737 16.6827C14.8161 16.5783 14.7609 16.4776 14.7063 16.382L15.7507 15.3368L16.2642 14.8216C16.9018 14.1823 16.9194 13.1615 16.3056 12.5456L13.2169 9.44922C12.6031 8.83417 11.5839 8.85283 10.9463 9.49206L10.0758 10.3695L10.0995 10.3932C9.80766 10.7665 9.56375 11.197 9.38223 11.6613C9.21491 12.1033 9.11074 12.525 9.06311 12.9476C8.65527 16.3363 10.2003 19.4334 14.3934 23.636C20.1896 29.4449 24.8605 29.0061 25.062 28.9847C25.5008 28.9321 25.9214 28.827 26.3489 28.6606C26.8081 28.4808 27.2374 28.2367 27.6096 27.9448L27.6286 27.9617L28.5105 27.0962C29.1468 26.4571 29.1651 25.4359 28.5516 24.819Z" fill="white"/>
</svg>
