<svg width="199" height="20" viewBox="0 0 199 20" fill="none" xmlns="http://www.w3.org/2000/svg">
<path d="M31.568 13.256V10.376H28.768V8.408H31.568V5.528H33.776V8.408H36.576V10.376H33.776V13.256H31.568ZM39.0958 7.4V3.816H47.1758V5.704L42.6478 15H39.9278L44.2478 5.96H41.4318V7.4H39.0958ZM59.2201 2.936C58.5801 3.85333 58.0361 4.97333 57.5881 6.296C57.1508 7.608 56.9321 8.84 56.9321 9.992C56.9321 11.1333 57.1508 12.3653 57.5881 13.688C58.0361 15.0107 58.5801 16.1253 59.2201 17.032H56.6281C56.1055 16.296 55.6255 15.2613 55.1881 13.928C54.7615 12.584 54.5481 11.272 54.5481 9.992C54.5481 8.712 54.7615 7.4 55.1881 6.056C55.6255 4.712 56.1055 3.672 56.6281 2.936H59.2201ZM65.3376 10.168V8.216H67.7376V10.168H69.0016V12.328H67.7376V15H65.3376V12.328H60.8416V10.424L64.8256 3.816H67.5456L63.7536 10.168H65.3376ZM75.0719 12.984C75.7652 12.984 76.2985 12.7547 76.6719 12.296C77.0559 11.8267 77.2905 11.192 77.3759 10.392C76.6932 10.8507 75.9572 11.08 75.1679 11.08C74.1225 11.08 73.2479 10.7387 72.5439 10.056C71.8505 9.36267 71.5039 8.45067 71.5039 7.32C71.5039 6.18933 71.8772 5.28267 72.6239 4.6C73.3812 3.90667 74.3305 3.56 75.4719 3.56C76.2612 3.56 76.9439 3.71467 77.5199 4.024C78.1065 4.32267 78.5652 4.744 78.8959 5.288C79.5252 6.344 79.8399 7.66667 79.8399 9.256C79.8399 10.28 79.7119 11.1813 79.4559 11.96C79.2105 12.728 78.8745 13.336 78.4479 13.784C77.5732 14.68 76.5119 15.128 75.2639 15.128C74.7412 15.128 74.2399 15.0533 73.7599 14.904C73.2799 14.744 72.9172 14.5893 72.6719 14.44C72.4265 14.28 72.1439 14.0773 71.8239 13.832L73.0719 12.072C73.1465 12.136 73.2425 12.2213 73.3599 12.328C73.4879 12.424 73.7279 12.5573 74.0799 12.728C74.4319 12.8987 74.7625 12.984 75.0719 12.984ZM75.4079 8.952C75.9092 8.952 76.3252 8.808 76.6559 8.52C76.9865 8.232 77.1519 7.85333 77.1519 7.384C77.1519 6.91467 76.9919 6.50933 76.6719 6.168C76.3519 5.82667 75.9519 5.656 75.4719 5.656C74.9919 5.656 74.5972 5.81067 74.2879 6.12C73.9892 6.41867 73.8399 6.80267 73.8399 7.272C73.8399 7.74133 73.9785 8.14133 74.2559 8.472C74.5332 8.792 74.9172 8.952 75.4079 8.952ZM89.8304 3.816V5.976H85.4144V7.848C85.745 7.752 86.1237 7.704 86.5504 7.704C87.6277 7.704 88.5557 8.02933 89.3344 8.68C90.113 9.33067 90.5024 10.2107 90.5024 11.32C90.5024 12.4187 90.097 13.3307 89.2864 14.056C88.4864 14.7707 87.4944 15.128 86.3104 15.128C84.7957 15.128 83.5317 14.568 82.5184 13.448L83.8304 11.624C83.9264 11.72 84.0544 11.8373 84.2144 11.976C84.3744 12.1147 84.6677 12.3013 85.0944 12.536C85.521 12.76 85.9477 12.872 86.3744 12.872C86.801 12.872 87.1797 12.744 87.5104 12.488C87.841 12.232 88.0064 11.8533 88.0064 11.352C88.0064 10.8507 87.825 10.4667 87.4624 10.2C87.1104 9.92267 86.6517 9.784 86.0864 9.784C85.521 9.784 84.865 9.98667 84.1184 10.392L83.0784 9.272V3.816H89.8304ZM92.6656 17.032C93.3056 16.1253 93.8443 15.0107 94.2816 13.688C94.7296 12.3653 94.9536 11.1333 94.9536 9.992C94.9536 8.84 94.7296 7.608 94.2816 6.296C93.8443 4.97333 93.3056 3.85333 92.6656 2.936H95.2576C95.7803 3.672 96.255 4.712 96.6816 6.056C97.119 7.4 97.3376 8.712 97.3376 9.992C97.3376 11.272 97.119 12.584 96.6816 13.928C96.255 15.2613 95.7803 16.296 95.2576 17.032H92.6656ZM108.489 9.784C109.151 9.112 109.62 8.57867 109.897 8.184C110.185 7.77867 110.329 7.38933 110.329 7.016C110.329 6.64267 110.207 6.33333 109.961 6.088C109.716 5.832 109.401 5.704 109.017 5.704C108.313 5.704 107.647 6.20533 107.017 7.208L105.017 6.024C105.54 5.21333 106.111 4.6 106.729 4.184C107.359 3.768 108.153 3.56 109.113 3.56C110.084 3.56 110.932 3.86933 111.657 4.488C112.393 5.096 112.761 5.928 112.761 6.984C112.761 7.56 112.612 8.11467 112.313 8.648C112.025 9.17067 111.487 9.84267 110.697 10.664L108.681 12.76H113.097V15H105.209V13.144L108.489 9.784ZM123.065 3.816V5.976H118.649V7.848C118.979 7.752 119.358 7.704 119.785 7.704C120.862 7.704 121.79 8.02933 122.569 8.68C123.347 9.33067 123.737 10.2107 123.737 11.32C123.737 12.4187 123.331 13.3307 122.521 14.056C121.721 14.7707 120.729 15.128 119.545 15.128C118.03 15.128 116.766 14.568 115.753 13.448L117.065 11.624C117.161 11.72 117.289 11.8373 117.449 11.976C117.609 12.1147 117.902 12.3013 118.329 12.536C118.755 12.76 119.182 12.872 119.609 12.872C120.035 12.872 120.414 12.744 120.745 12.488C121.075 12.232 121.241 11.8533 121.241 11.352C121.241 10.8507 121.059 10.4667 120.697 10.2C120.345 9.92267 119.886 9.784 119.321 9.784C118.755 9.784 118.099 9.98667 117.353 10.392L116.313 9.272V3.816H123.065ZM133.596 3.816V5.976H129.18V7.848C129.511 7.752 129.889 7.704 130.316 7.704C131.393 7.704 132.321 8.02933 133.1 8.68C133.879 9.33067 134.268 10.2107 134.268 11.32C134.268 12.4187 133.863 13.3307 133.052 14.056C132.252 14.7707 131.26 15.128 130.076 15.128C128.561 15.128 127.297 14.568 126.284 13.448L127.596 11.624C127.692 11.72 127.82 11.8373 127.98 11.976C128.14 12.1147 128.433 12.3013 128.86 12.536C129.287 12.76 129.713 12.872 130.14 12.872C130.567 12.872 130.945 12.744 131.276 12.488C131.607 12.232 131.772 11.8533 131.772 11.352C131.772 10.8507 131.591 10.4667 131.228 10.2C130.876 9.92267 130.417 9.784 129.852 9.784C129.287 9.784 128.631 9.98667 127.884 10.392L126.844 9.272V3.816H133.596ZM137.103 11.256V9.128H142.799V11.256H137.103ZM145.825 5.944V3.816H152.673V5.544L150.385 8.152C151.281 8.30133 151.974 8.68 152.465 9.288C152.956 9.88533 153.201 10.5787 153.201 11.368C153.201 12.5413 152.801 13.464 152.001 14.136C151.212 14.7973 150.198 15.128 148.961 15.128C147.724 15.128 146.47 14.6907 145.201 13.816L146.225 11.832C147.281 12.5787 148.225 12.952 149.057 12.952C149.558 12.952 149.969 12.8293 150.289 12.584C150.62 12.3387 150.785 11.9867 150.785 11.528C150.785 11.0587 150.598 10.6907 150.225 10.424C149.852 10.1467 149.334 10.008 148.673 10.008C148.321 10.008 147.825 10.1093 147.185 10.312V8.472L149.329 5.944H145.825ZM158.95 6.648C158.598 7.33067 158.422 8.232 158.422 9.352C158.422 10.472 158.598 11.3733 158.95 12.056C159.302 12.7387 159.851 13.08 160.598 13.08C161.345 13.08 161.894 12.7387 162.246 12.056C162.598 11.3733 162.774 10.472 162.774 9.352C162.774 8.232 162.598 7.33067 162.246 6.648C161.894 5.96533 161.345 5.624 160.598 5.624C159.851 5.624 159.302 5.96533 158.95 6.648ZM160.598 15.128C159.051 15.128 157.894 14.6053 157.126 13.56C156.358 12.504 155.974 11.1013 155.974 9.352C155.974 7.592 156.358 6.18933 157.126 5.144C157.894 4.088 159.051 3.56 160.598 3.56C162.145 3.56 163.302 4.088 164.07 5.144C164.838 6.18933 165.222 7.592 165.222 9.352C165.222 11.1013 164.838 12.504 164.07 13.56C163.302 14.6053 162.145 15.128 160.598 15.128ZM168.197 11.256V9.128H173.893V11.256H168.197ZM179.942 9.784C180.604 9.112 181.073 8.57867 181.35 8.184C181.638 7.77867 181.782 7.38933 181.782 7.016C181.782 6.64267 181.66 6.33333 181.414 6.088C181.169 5.832 180.854 5.704 180.47 5.704C179.766 5.704 179.1 6.20533 178.47 7.208L176.47 6.024C176.993 5.21333 177.564 4.6 178.182 4.184C178.812 3.768 179.606 3.56 180.566 3.56C181.537 3.56 182.385 3.86933 183.11 4.488C183.846 5.096 184.214 5.928 184.214 6.984C184.214 7.56 184.065 8.11467 183.766 8.648C183.478 9.17067 182.94 9.84267 182.15 10.664L180.134 12.76H184.55V15H176.662V13.144L179.942 9.784ZM190.294 6.648C189.942 7.33067 189.766 8.232 189.766 9.352C189.766 10.472 189.942 11.3733 190.294 12.056C190.646 12.7387 191.195 13.08 191.942 13.08C192.689 13.08 193.238 12.7387 193.59 12.056C193.942 11.3733 194.118 10.472 194.118 9.352C194.118 8.232 193.942 7.33067 193.59 6.648C193.238 5.96533 192.689 5.624 191.942 5.624C191.195 5.624 190.646 5.96533 190.294 6.648ZM191.942 15.128C190.395 15.128 189.238 14.6053 188.47 13.56C187.702 12.504 187.318 11.1013 187.318 9.352C187.318 7.592 187.702 6.18933 188.47 5.144C189.238 4.088 190.395 3.56 191.942 3.56C193.489 3.56 194.646 4.088 195.414 5.144C196.182 6.18933 196.566 7.592 196.566 9.352C196.566 11.1013 196.182 12.504 195.414 13.56C194.646 14.6053 193.489 15.128 191.942 15.128Z" fill="white"/>
<path d="M19.5516 15.819L16.4629 12.723C15.8477 12.1089 14.8289 12.1275 14.1923 12.7659L12.6362 14.3251C12.5379 14.2708 12.4361 14.2141 12.3291 14.1539C11.3465 13.6082 10.0015 12.8602 8.58628 11.4407C7.16682 10.0182 6.41986 8.66818 5.87372 7.68266C5.81609 7.57825 5.76087 7.47759 5.70634 7.38199L6.75071 6.33681L7.26416 5.82156C7.90177 5.18233 7.91936 4.16151 7.30558 3.54559L4.2169 0.449216C3.60313 -0.165832 2.58387 -0.147173 1.94626 0.492062L1.07576 1.36954L1.09955 1.39321C0.807657 1.7665 0.563746 2.19704 0.382234 2.66132C0.214915 3.10325 0.110743 3.52498 0.0631095 3.94756C-0.344731 7.33632 1.20033 10.4334 5.39342 14.636C11.1896 20.4449 15.8605 20.0061 16.062 19.9847C16.5008 19.9321 16.9214 19.827 17.3489 19.6606C17.8081 19.4808 18.2374 19.2367 18.6096 18.9448L18.6286 18.9617L19.5105 18.0962C20.1468 17.4571 20.1651 16.4359 19.5516 15.819Z" fill="#E6514A"/>
</svg>
