<svg width="53" height="52" viewBox="0 0 53 52" fill="none" xmlns="http://www.w3.org/2000/svg">
<path d="M51.7383 0H1.26172C0.840945 0 0.5 0.341047 0.5 0.761719V51.2383C0.5 51.659 0.840945 52 1.26172 52H51.7383C52.1591 52 52.5 51.659 52.5 51.2383V0.761719C52.5 0.341047 52.1591 0 51.7383 0ZM50.9766 50.4766H2.02344V1.52344H50.9766V50.4766Z" fill="#3035C4"/>
<path d="M48.6914 3.04688H4.30859C3.88782 3.04688 3.54688 3.38792 3.54688 3.80859V8.37891C3.54688 8.79958 3.88782 9.14062 4.30859 9.14062C4.72937 9.14062 5.07031 8.79958 5.07031 8.37891V4.57031H47.9297V47.4297H5.07031V11.4258C5.07031 11.0051 4.72937 10.6641 4.30859 10.6641C3.88782 10.6641 3.54688 11.0051 3.54688 11.4258V48.1914C3.54688 48.6121 3.88782 48.9531 4.30859 48.9531H48.6914C49.1122 48.9531 49.4531 48.6121 49.4531 48.1914V3.80859C49.4531 3.38792 49.1122 3.04688 48.6914 3.04688Z" fill="#3035C4"/>
<path d="M26.5 23.207H24.9276L26.2443 17.0625H31.5273C33.0673 17.0625 34.3203 15.8096 34.3203 14.2695C34.3203 12.7294 33.0673 11.4766 31.5273 11.4766H23.9863C22.678 11.4766 21.5295 12.4051 21.2553 13.6843L18.7417 25.4148C18.5641 26.2435 18.7678 27.0968 19.3006 27.756C19.8335 28.4151 20.6252 28.793 21.4727 28.793H26.5C27.7321 28.793 28.7344 29.7953 28.7344 31.0273V32.7031C28.7344 33.9352 27.7321 34.9375 26.5 34.9375C25.268 34.9375 24.2656 33.9352 24.2656 32.7031C24.2656 31.163 23.0127 29.9102 21.4727 29.9102C19.9327 29.9102 18.6797 31.163 18.6797 32.7031C18.6797 37.0153 22.1879 40.5234 26.5 40.5234C30.8121 40.5234 34.3203 37.0153 34.3203 32.7031V31.0273C34.3203 26.7152 30.8121 23.207 26.5 23.207ZM32.7969 32.7031C32.7969 36.1752 29.9721 39 26.5 39C23.0279 39 20.2031 36.1752 20.2031 32.7031C20.2031 32.0031 20.7726 31.4336 21.4727 31.4336C22.1727 31.4336 22.7422 32.0031 22.7422 32.7031C22.7422 34.7752 24.4279 36.4609 26.5 36.4609C28.5721 36.4609 30.2578 34.7752 30.2578 32.7031V31.0273C30.2578 28.9553 28.5721 27.2695 26.5 27.2695H21.4727C21.0874 27.2695 20.7276 27.0977 20.4854 26.7982C20.2431 26.4986 20.1506 26.1107 20.2314 25.734L22.745 14.0035C22.8697 13.422 23.3916 13 23.9863 13H31.5273C32.2274 13 32.7969 13.5695 32.7969 14.2695C32.7969 14.9696 32.2274 15.5391 31.5273 15.5391H25.6284C25.2693 15.5391 24.9588 15.79 24.8835 16.1412L23.2405 23.8092C23.1922 24.0341 23.2483 24.2688 23.393 24.4477C23.5376 24.6266 23.7553 24.7306 23.9853 24.7306H26.5C29.9721 24.7306 32.7969 27.5553 32.7969 31.0274V32.7031Z" fill="#E6514A"/>
</svg>
