<svg width="38" height="38" viewBox="0 0 38 38" fill="none" xmlns="http://www.w3.org/2000/svg">
<path d="M19.0047 0H18.9953C8.51913 0 0 8.5215 0 19C0 23.1562 1.3395 27.0085 3.61713 30.1364L1.24925 37.1949L8.55237 34.8603C11.5568 36.8505 15.1406 38 19.0047 38C29.4809 38 38 29.4761 38 19C38 8.52388 29.4809 0 19.0047 0Z" fill="#4CAF50"/>
<path d="M30.0604 26.8304C29.6021 28.1248 27.7828 29.1983 26.3317 29.5118C25.3389 29.7231 24.0422 29.8918 19.6769 28.082C14.0933 25.7688 10.4976 20.0949 10.2173 19.7268C9.94894 19.3586 7.96106 16.7224 7.96106 13.9959C7.96106 11.2694 9.34569 9.94177 9.90381 9.37177C10.3622 8.90389 11.1198 8.69014 11.8466 8.69014C12.0817 8.69014 12.2931 8.70201 12.4831 8.71151C13.0412 8.73526 13.3214 8.76852 13.6896 9.64964C14.1479 10.754 15.2642 13.4805 15.3972 13.7608C15.5326 14.041 15.6679 14.421 15.4779 14.7891C15.2998 15.1691 15.1431 15.3378 14.8628 15.6608C14.5826 15.9838 14.3166 16.2308 14.0363 16.5775C13.7798 16.8791 13.4901 17.2021 13.8131 17.7603C14.1361 18.3065 15.2523 20.1281 16.8958 21.5911C19.0167 23.4793 20.7362 24.0825 21.3513 24.339C21.8097 24.529 22.3559 24.4839 22.6908 24.1276C23.1159 23.6693 23.6408 22.9093 24.1752 22.1611C24.5552 21.6244 25.0349 21.5579 25.5384 21.7479C26.0514 21.926 28.7661 23.2679 29.3242 23.5458C29.8823 23.826 30.2504 23.959 30.3858 24.1941C30.5188 24.4293 30.5188 25.5336 30.0604 26.8304Z" fill="#FAFAFA"/>
</svg>
