<svg width="56" height="55" viewBox="0 0 56 55" fill="none" xmlns="http://www.w3.org/2000/svg">
<path d="M55.5001 6.41667V33.9167C55.4981 35.6179 54.8215 37.2489 53.6186 38.4518C52.4156 39.6547 50.7846 40.3314 49.0834 40.3333H38.2026L38.8901 45.8333H40.8334C41.5628 45.8333 42.2622 46.1231 42.778 46.6388C43.2937 47.1545 43.5834 47.854 43.5834 48.5833C43.5834 49.3127 43.2937 50.0121 42.778 50.5279C42.2622 51.0436 41.5628 51.3333 40.8334 51.3333H29.8334V49.5H40.8334C41.0765 49.5 41.3097 49.4034 41.4816 49.2315C41.6535 49.0596 41.7501 48.8264 41.7501 48.5833C41.7501 48.3402 41.6535 48.1071 41.4816 47.9352C41.3097 47.7632 41.0765 47.6667 40.8334 47.6667H29.8334V45.8333H37.0476L36.3601 40.3333H29.8334V38.5H49.0834C50.299 38.5 51.4648 38.0171 52.3243 37.1576C53.1839 36.298 53.6668 35.1322 53.6668 33.9167V33H29.8334V31.1667H53.6668V6.41667C53.6668 5.20109 53.1839 4.0353 52.3243 3.17576C51.4648 2.31622 50.299 1.83333 49.0834 1.83333H12.4168C11.2012 1.83333 10.0354 2.31622 9.17585 3.17576C8.31631 4.0353 7.83342 5.20109 7.83342 6.41667V25.6667H6.00009V6.41667C6.00203 4.71546 6.6787 3.08448 7.88163 1.88154C9.08457 0.678604 10.7155 0.00194091 12.4168 0H49.0834C50.7846 0.00194091 52.4156 0.678604 53.6186 1.88154C54.8215 3.08448 55.4981 4.71546 55.5001 6.41667Z" fill="#3035C4"/>
<path d="M48.1666 34.8334H50V36.6667H48.1666V34.8334Z" fill="#3035C4"/>
<path d="M25.25 27.5H3.25C2.52132 27.5022 1.82311 27.7926 1.30786 28.3079C0.792606 28.8231 0.502176 29.5213 0.5 30.25V52.25C0.502176 52.9787 0.792606 53.6769 1.30786 54.1921C1.82311 54.7074 2.52132 54.9978 3.25 55H25.25C25.9787 54.9978 26.6769 54.7074 27.1921 54.1921C27.7074 53.6769 27.9978 52.9787 28 52.25V30.25C27.9978 29.5213 27.7074 28.8231 27.1921 28.3079C26.6769 27.7926 25.9787 27.5022 25.25 27.5ZM26.1667 52.25C26.1667 52.4931 26.0701 52.7263 25.8982 52.8982C25.7263 53.0701 25.4931 53.1667 25.25 53.1667H3.25C3.00688 53.1667 2.77373 53.0701 2.60182 52.8982C2.42991 52.7263 2.33333 52.4931 2.33333 52.25V30.25C2.33333 30.0069 2.42991 29.7737 2.60182 29.6018C2.77373 29.4299 3.00688 29.3333 3.25 29.3333H25.25C25.4931 29.3333 25.7263 29.4299 25.8982 29.6018C26.0701 29.7737 26.1667 30.0069 26.1667 30.25V52.25Z" fill="#3035C4"/>
<path d="M17.2814 39.7246L14.3481 37.7703C14.072 37.5868 13.7513 37.4816 13.4202 37.4659C13.0891 37.4502 12.76 37.5246 12.4678 37.6811C12.1755 37.8375 11.9312 38.0703 11.7608 38.3547C11.5904 38.639 11.5003 38.9642 11.5 39.2956V43.2043C11.4994 43.5364 11.589 43.8624 11.7592 44.1475C11.9295 44.4326 12.1739 44.6662 12.4666 44.8232C12.7592 44.9802 13.089 45.0547 13.4207 45.0389C13.7524 45.0231 14.0735 44.9174 14.3499 44.7333L17.2832 42.779C17.5343 42.6116 17.7402 42.3847 17.8826 42.1186C18.025 41.8526 18.0995 41.5554 18.0995 41.2536C18.0995 40.9519 18.025 40.6547 17.8826 40.3886C17.7402 40.1226 17.5343 39.8957 17.2832 39.7283L17.2814 39.7246ZM13.3333 43.2098V39.2956L16.2666 41.25L13.3333 43.2098Z" fill="#E6514A"/>
<path d="M14.2501 33C12.6184 33 11.0233 33.4839 9.66664 34.3904C8.30993 35.2969 7.25251 36.5854 6.62809 38.0929C6.00367 39.6004 5.84029 41.2592 6.15862 42.8595C6.47694 44.4598 7.26268 45.9298 8.41646 47.0836C9.57025 48.2374 11.0403 49.0232 12.6406 49.3415C14.2409 49.6598 15.8997 49.4964 17.4072 48.872C18.9147 48.2476 20.2032 47.1902 21.1097 45.8335C22.0162 44.4768 22.5001 42.8817 22.5001 41.25C22.4977 39.0627 21.6277 36.9657 20.081 35.419C18.5344 33.8724 16.4374 33.0024 14.2501 33ZM14.2501 47.6667C12.981 47.6667 11.7404 47.2903 10.6852 46.5853C9.62997 45.8802 8.80753 44.878 8.32187 43.7056C7.83621 42.5331 7.70913 41.2429 7.95672 39.9982C8.20431 38.7535 8.81544 37.6101 9.71283 36.7127C10.6102 35.8153 11.7536 35.2042 12.9983 34.9566C14.243 34.709 15.5332 34.8361 16.7056 35.3218C17.8781 35.8074 18.8803 36.6299 19.5854 37.6851C20.2904 38.7403 20.6668 39.9809 20.6668 41.25C20.6648 42.9512 19.9882 44.5822 18.7852 45.7851C17.5823 46.9881 15.9513 47.6647 14.2501 47.6667Z" fill="#3035C4"/>
<path d="M46.865 17.545L44.5 16.7567V16.4725C45.068 16.0507 45.5296 15.502 45.8479 14.8702C46.1662 14.2383 46.3325 13.5408 46.3333 12.8333V10.0833C46.3333 8.86776 45.8504 7.70197 44.9909 6.84243C44.1313 5.98289 42.9655 5.5 41.75 5.5C40.5344 5.5 39.3686 5.98289 38.5091 6.84243C37.6495 7.70197 37.1666 8.86776 37.1666 10.0833V12.8333C37.1675 13.5408 37.3337 14.2383 37.652 14.8702C37.9703 15.502 38.4319 16.0507 39 16.4725V16.7567L36.635 17.545C35.7217 17.8473 34.9271 18.4299 34.3642 19.2101C33.8013 19.9902 33.4989 20.928 33.5 21.89V26.5833C33.5 26.8264 33.5965 27.0596 33.7685 27.2315C33.9404 27.4034 34.1735 27.5 34.4166 27.5H49.0833C49.3264 27.5 49.5596 27.4034 49.7315 27.2315C49.9034 27.0596 50 26.8264 50 26.5833V21.89C50.0011 20.928 49.6986 19.9902 49.1357 19.2101C48.5729 18.4299 47.7782 17.8473 46.865 17.545ZM39 10.0833C39 9.35399 39.2897 8.65451 39.8054 8.13879C40.3212 7.62306 41.0206 7.33333 41.75 7.33333C42.4793 7.33333 43.1788 7.62306 43.6945 8.13879C44.2102 8.65451 44.5 9.35399 44.5 10.0833V10.9725C44.3703 10.9424 44.2488 10.8841 44.1443 10.8017C44.0397 10.7193 43.9546 10.6149 43.895 10.4958L43.4916 9.67083C43.4258 9.54073 43.3302 9.42805 43.2125 9.342C43.0948 9.25595 42.9584 9.19897 42.8144 9.17573C42.6705 9.15248 42.5231 9.16363 42.3843 9.20826C42.2455 9.25288 42.1192 9.32973 42.0158 9.4325L41.7958 9.66167C41.0418 10.4035 40.0535 10.8603 39 10.9542V10.0833ZM39 12.7967C40.2274 12.7256 41.4069 12.2953 42.3916 11.5592C42.6211 11.9173 42.9314 12.2167 43.2976 12.4332C43.6637 12.6497 44.0756 12.7773 44.5 12.8058V12.8333C44.5 13.5627 44.2102 14.2622 43.6945 14.7779C43.1788 15.2936 42.4793 15.5833 41.75 15.5833C41.0206 15.5833 40.3212 15.2936 39.8054 14.7779C39.2897 14.2622 39 13.5627 39 12.8333V12.7967ZM42.9783 18.095L41.75 19.0208L40.5216 18.095C40.6185 18.0103 40.6964 17.9061 40.7501 17.7892C40.8038 17.6723 40.8322 17.5453 40.8333 17.4167V17.325C41.4383 17.4472 42.0616 17.4472 42.6666 17.325V17.4167C42.6677 17.5453 42.6961 17.6723 42.7498 17.7892C42.8035 17.9061 42.8814 18.0103 42.9783 18.095ZM48.1666 25.6667H35.3333V21.89C35.3327 21.3135 35.514 20.7515 35.8514 20.2841C36.1888 19.8167 36.6651 19.4676 37.2125 19.2867L38.4866 18.8558L41.2 20.9C41.3586 21.019 41.5516 21.0833 41.75 21.0833C41.9483 21.0833 42.1413 21.019 42.3 20.9L45.0133 18.8558L46.2875 19.2867C46.8348 19.4676 47.3111 19.8167 47.6485 20.2841C47.9859 20.7515 48.1672 21.3135 48.1666 21.89V25.6667Z" fill="#3035C4"/>
<path d="M29.8334 11.4372V15.5833H31.6667V10.0833C31.6669 9.90008 31.6121 9.72102 31.5095 9.56923C31.4069 9.41744 31.2612 9.29988 31.0911 9.23172L21.9244 5.56505C21.7054 5.47799 21.4614 5.47799 21.2424 5.56505L12.0757 9.23172C11.9053 9.2996 11.7592 9.41704 11.6563 9.56885C11.5533 9.72067 11.4983 9.89988 11.4983 10.0833C11.4983 10.2667 11.5533 10.4459 11.6563 10.5977C11.7592 10.7496 11.9053 10.867 12.0757 10.9349L15.1667 12.1706V17.4166C15.1667 17.6597 15.2633 17.8929 15.4352 18.0648C15.6071 18.2367 15.8403 18.3333 16.0834 18.3333H27.0834C27.3265 18.3333 27.5597 18.2367 27.7316 18.0648C27.9035 17.8929 28.0001 17.6597 28.0001 17.4166V12.1706L29.8334 11.4372ZM21.5834 7.40388L28.2824 10.0833L21.5834 12.7627L14.8844 10.0833L21.5834 7.40388ZM26.1667 16.5H17.0001V12.9039L21.2424 14.6016C21.4615 14.6883 21.7054 14.6883 21.9244 14.6016L26.1667 12.9039V16.5Z" fill="#E6514A"/>
<path d="M15.1667 20.1666H17.0001V22H15.1667V20.1666Z" fill="#3035C4"/>
<path d="M18.8333 20.1666H28V22H18.8333V20.1666Z" fill="#3035C4"/>
<path d="M15.1667 23.8333H28.0001V25.6666H15.1667V23.8333Z" fill="#3035C4"/>
</svg>
