<svg width="57" height="57" viewBox="0 0 57 57" fill="none" xmlns="http://www.w3.org/2000/svg">
<path d="M54.4903 0.000244141H43.387C42.9248 0.000244141 42.5503 0.374753 42.5503 0.836877C42.5503 1.299 42.9248 1.67351 43.387 1.67351H54.4903C54.9516 1.67351 55.3269 2.0488 55.3269 2.51014V19.3489C55.3269 19.8102 54.9516 20.1855 54.4903 20.1855H31.471V19.7833C31.471 18.1512 30.1433 16.8236 28.5114 16.8236C26.8794 16.8236 25.5517 18.1513 25.5517 19.7833V20.1855H17.0296C16.5676 20.1855 16.193 20.56 16.193 21.0222C16.193 21.4843 16.5676 21.8588 17.0296 21.8588H25.5517V36.6022L23.5646 34.3752C22.338 33.0005 20.5779 32.2121 18.7356 32.2121C18.0491 32.2121 17.4297 32.5645 17.0789 33.1547C16.7281 33.745 16.7148 34.4575 17.043 35.0606L20.3748 41.1813C21.2008 42.6986 22.2543 44.072 23.506 45.2631L27.0568 48.6416V50.4338C26.1883 50.6143 25.5338 51.3852 25.5338 52.3065V55.0878C25.5338 56.1425 26.3918 57.0005 27.4465 57.0005H40.6375C41.6922 57.0005 42.5503 56.1425 42.5503 55.0878V52.3065C42.5503 51.4051 41.923 50.6494 41.0826 50.448V48.5883C41.8451 47.6264 44.2093 44.0964 44.2093 37.3153V32.2053C44.2093 30.5734 42.8816 29.2458 41.2497 29.2458C40.7043 29.2458 40.1928 29.3941 39.7535 29.6525C39.3175 28.5607 38.2492 27.7871 37.0035 27.7871C36.4581 27.7871 35.9468 27.9354 35.5075 28.1938C35.0714 27.102 34.0031 26.3285 32.7574 26.3285C32.2966 26.3285 31.8601 26.4343 31.4709 26.623V21.859H54.4902C55.8741 21.859 57 20.733 57 19.3492V2.51003C57.0001 1.12611 55.8742 0.000244141 54.4903 0.000244141V0.000244141ZM32.7575 28.0013C33.4669 28.0013 34.0441 28.5785 34.0441 29.2879V30.7466C34.0441 31.2087 34.4186 31.5832 34.8807 31.5832C35.3428 31.5832 35.7173 31.2087 35.7173 30.7466C35.7173 30.0372 36.2945 29.4601 37.0038 29.4601C37.7131 29.4601 38.2902 30.0372 38.2902 30.7466V32.2052C38.2902 32.6673 38.6647 33.0419 39.1269 33.0419C39.589 33.0419 39.9635 32.6673 39.9635 32.2052C39.9635 31.4958 40.5406 30.9188 41.25 30.9188C41.9594 30.9188 42.5365 31.4958 42.5365 32.2052V37.3152C42.5365 44.5028 39.6653 47.6792 39.6392 47.7073C39.4918 47.8626 39.4096 48.0686 39.4096 48.2828V50.3935H37.3885C36.9263 50.3935 36.5518 50.768 36.5518 51.2301C36.5518 51.6923 36.9263 52.0668 37.3885 52.0668H40.6376C40.7697 52.0668 40.8773 52.1743 40.8773 52.3065V55.0878C40.8773 55.2199 40.7697 55.3273 40.6376 55.3273H27.4465C27.3144 55.3273 27.2069 55.2199 27.2069 55.0878V52.3065C27.2069 52.1743 27.3144 52.0668 27.4465 52.0668H34.0421C34.5042 52.0668 34.8787 51.6923 34.8787 51.2301C34.8787 50.768 34.5042 50.3935 34.0421 50.3935H28.73V48.2828C28.73 48.0537 28.6361 47.8347 28.4701 47.6768L24.6594 44.0509C23.534 42.98 22.5869 41.7454 21.8444 40.3812L18.5125 34.2604C18.4338 34.0494 18.5124 33.917 18.7355 33.8852C20.1015 33.8852 21.4065 34.4696 22.3159 35.489L25.7321 39.3175C26.2168 39.8878 27.248 39.5241 27.2246 38.7606V19.7833C27.2246 19.0739 27.8018 18.4968 28.5111 18.4968C29.2204 18.4968 29.7975 19.0739 29.7975 19.7833V29.2879C29.7975 29.75 30.1721 30.1245 30.6342 30.1245C31.0963 30.1245 31.4708 29.75 31.4708 29.2879C31.471 28.5785 32.0482 28.0013 32.7575 28.0013Z" fill="#3035C4"/>
<path d="M13.6833 20.1852H2.50979C2.04844 20.1852 1.67315 19.8099 1.67315 19.3485V2.50979C1.67315 2.04844 2.04844 1.67315 2.50979 1.67315H40.0406C40.5027 1.67315 40.8772 1.29865 40.8772 0.836522C40.8772 0.374397 40.5027 0 40.0406 0H2.50979C1.12586 0 0 1.12586 0 2.50979V19.3485C0 20.7324 1.12586 21.8583 2.50979 21.8583H13.6833C14.1453 21.8583 14.5199 21.4838 14.5199 21.0217C14.5199 20.5596 14.1454 20.1852 13.6833 20.1852Z" fill="#3035C4"/>
<path d="M34.0055 10.3009C34.4971 9.82185 34.6707 9.1187 34.4585 8.46587C34.2465 7.81304 33.6926 7.34613 33.0133 7.24738L31.0654 6.96438C31.0272 6.95881 30.9941 6.93488 30.977 6.90026L30.1057 5.13503C29.802 4.5195 29.1869 4.13708 28.5004 4.13708C27.8139 4.13708 27.1987 4.51939 26.8949 5.13503L26.0236 6.90037C26.0065 6.93488 25.9735 6.95893 25.9356 6.96438L23.9872 7.24738C23.3079 7.34613 22.7541 7.81304 22.5421 8.46587C22.33 9.1187 22.5035 9.82185 22.9951 10.3009L24.4048 11.6751C24.4324 11.7021 24.445 11.7407 24.4384 11.7788L24.1057 13.719C23.9897 14.3954 24.2625 15.0664 24.8178 15.4699C25.3731 15.8734 26.0957 15.9257 26.7033 15.6062L28.4458 14.6901C28.4799 14.6721 28.5206 14.6721 28.5547 14.6901L30.2973 15.6062C30.5616 15.7451 30.8475 15.8138 31.132 15.8138C31.5017 15.8138 31.8689 15.6979 32.1828 15.4699C32.738 15.0664 33.0108 14.3954 32.8947 13.719L32.5621 11.7788C32.5555 11.7408 32.5681 11.7021 32.5957 11.6751L34.0055 10.3009ZM31.4279 10.4771C31.0058 10.8885 30.8133 11.4809 30.9131 12.0617L31.2458 14.0021C31.2491 14.0217 31.2581 14.0738 31.1992 14.1165C31.1405 14.1592 31.0933 14.1345 31.0758 14.1254L29.3334 13.2093C29.0725 13.0721 28.7865 13.0036 28.5002 13.0036C28.2141 13.0036 27.928 13.0722 27.6672 13.2092L25.9248 14.1254C25.9072 14.1345 25.8603 14.1594 25.8013 14.1165C25.7424 14.0737 25.7513 14.0216 25.7548 14.002L26.0875 12.0617C26.1872 11.4808 25.9947 10.8884 25.5726 10.4771L24.163 9.103C24.1488 9.08908 24.1109 9.05212 24.1333 8.98299C24.1558 8.91374 24.2082 8.90606 24.2278 8.90328L26.1762 8.62028C26.7594 8.53545 27.2632 8.16918 27.5239 7.64092L28.3952 5.8757C28.4039 5.85778 28.4273 5.81046 28.5001 5.81046C28.5729 5.81046 28.5962 5.85789 28.6051 5.8757L29.4764 7.64081C29.737 8.16929 30.241 8.53545 30.8244 8.62039L32.7725 8.90339C32.7922 8.90628 32.8446 8.91385 32.867 8.9831C32.8895 9.05223 32.8516 9.0892 32.8374 9.10311L31.4279 10.4771Z" fill="#E6514A"/>
<path d="M16.214 13.7191L15.8813 11.7789C15.8747 11.7409 15.8873 11.7022 15.915 11.6753L17.3246 10.301C17.8162 9.82197 17.9897 9.11882 17.7776 8.46599C17.5656 7.81316 17.0118 7.34625 16.3324 7.2475L14.3844 6.9645C14.3462 6.95894 14.3132 6.935 14.2961 6.90038L13.4248 5.13516C13.121 4.51962 12.5059 4.13721 11.8195 4.13721C11.133 4.13721 10.5178 4.51951 10.214 5.13516L9.34285 6.90038C9.3257 6.935 9.29264 6.95894 9.25467 6.9645L7.30643 7.2475C6.6271 7.34625 6.07335 7.81316 5.86127 8.46599C5.64919 9.11882 5.82275 9.82197 6.31427 10.301L7.72402 11.6753C7.75163 11.7022 7.76421 11.7408 7.75764 11.7789L7.42488 13.7191C7.30888 14.3957 7.58174 15.0667 8.13705 15.47C8.69247 15.8737 9.41488 15.9257 10.0225 15.6064L11.765 14.6903C11.7991 14.6723 11.8398 14.6723 11.874 14.6903L13.6166 15.6064C13.8809 15.7452 14.1668 15.8139 14.4514 15.8139C14.821 15.8139 15.1883 15.698 15.5021 15.47C16.0572 15.0665 16.33 14.3956 16.214 13.7191ZM14.7472 10.477C14.325 10.8884 14.1325 11.4808 14.2322 12.0617L14.5649 14.002C14.5683 14.0216 14.5773 14.0737 14.5184 14.1165C14.4596 14.1594 14.4126 14.1345 14.395 14.1254L12.6525 13.2092C12.3917 13.0721 12.1056 13.0036 11.8195 13.0036C11.5333 13.0036 11.2471 13.0722 10.9864 13.2092L9.24399 14.1254C9.2264 14.1345 9.17953 14.1593 9.12064 14.1165C9.06174 14.0738 9.07065 14.0216 9.0741 14.002L9.40686 12.0617C9.5065 11.4808 9.31401 10.8884 8.89197 10.4771L7.48233 9.1029C7.46808 9.08898 7.43023 9.05202 7.4526 8.98289C7.47509 8.91364 7.52753 8.90596 7.54712 8.90318L9.49548 8.62018C10.0786 8.53535 10.5825 8.16919 10.8433 7.64082L11.7146 5.8756C11.7234 5.85768 11.7468 5.81036 11.8196 5.81036C11.8924 5.81036 11.9158 5.85779 11.9246 5.8756L12.7958 7.64071C13.0565 8.16919 13.5603 8.53535 14.1438 8.62029L16.0919 8.90329C16.1116 8.90618 16.1639 8.91375 16.1864 8.983C16.2089 9.05213 16.1711 9.0891 16.1568 9.10301L14.7472 10.477Z" fill="#E6514A"/>
<path d="M50.6867 10.3009C51.1782 9.82185 51.3519 9.1187 51.1397 8.46587C50.9276 7.81304 50.3737 7.34613 49.6944 7.24738L47.7465 6.96438C47.7082 6.95882 47.6752 6.93488 47.6581 6.90026L46.7868 5.13503C46.483 4.5195 45.8679 4.13708 45.1815 4.13708C44.495 4.13708 43.8798 4.51939 43.576 5.13503L42.7049 6.90015C42.6876 6.93477 42.6547 6.95882 42.6166 6.96438L40.6683 7.24738C39.9889 7.34613 39.4353 7.81304 39.2232 8.46598C39.0111 9.11881 39.1848 9.82196 39.6762 10.3009L41.0859 11.6751C41.1134 11.7021 41.1261 11.7407 41.1194 11.7788L40.7869 13.719C40.6708 14.3956 40.9437 15.0665 41.499 15.47C42.0541 15.8735 42.7766 15.9258 43.3843 15.6064L45.1268 14.6902C45.1608 14.6724 45.2018 14.6722 45.2357 14.6902L46.9783 15.6064C47.2426 15.7452 47.5285 15.8139 47.8131 15.8139C48.1827 15.8139 48.55 15.698 48.8638 15.47C49.419 15.0665 49.6918 14.3956 49.5757 13.7191L49.2431 11.7789C49.2365 11.7409 49.2491 11.7022 49.2767 11.6752L50.6867 10.3009ZM48.109 10.4771C47.6869 10.8885 47.4944 11.4809 47.5942 12.0617L47.927 14.0021C47.9302 14.0217 47.9392 14.0738 47.8803 14.1165C47.8216 14.1592 47.7744 14.1345 47.757 14.1254L46.0146 13.2093C45.7537 13.0721 45.4676 13.0036 45.1815 13.0036C44.8954 13.0036 44.6092 13.0722 44.3483 13.2092L42.6058 14.1254C42.5884 14.1345 42.5414 14.1593 42.4826 14.1165C42.4238 14.0738 42.4327 14.0217 42.436 14.002L42.7686 12.062C42.8683 11.4811 42.6759 10.8886 42.2539 10.4771L40.8442 9.10278C40.8301 9.08897 40.7921 9.05201 40.8146 8.98288C40.8372 8.91363 40.8896 8.90595 40.9092 8.90317L42.8575 8.62017C43.4405 8.53534 43.9443 8.16918 44.2054 7.64081L45.0766 5.87559C45.0854 5.85767 45.1089 5.81035 45.1816 5.81035C45.2543 5.81035 45.2777 5.85778 45.2865 5.87559L46.1577 7.6407C46.4183 8.16918 46.9223 8.53534 47.5058 8.62028L49.4538 8.90328C49.4735 8.90617 49.526 8.91374 49.5483 8.98299C49.5709 9.05212 49.533 9.08908 49.5187 9.103L48.109 10.4771Z" fill="#E6514A"/>
</svg>
