<svg width="53" height="52" viewBox="0 0 53 52" fill="none" xmlns="http://www.w3.org/2000/svg">
<path d="M51.7383 0H1.26172C0.840945 0 0.5 0.341047 0.5 0.761719V51.2383C0.5 51.659 0.840945 52 1.26172 52H51.7383C52.1591 52 52.5 51.659 52.5 51.2383V0.761719C52.5 0.341047 52.1591 0 51.7383 0ZM50.9766 50.4766H2.02344V1.52344H50.9766V50.4766Z" fill="#3035C4"/>
<path d="M48.6914 3.04688H4.30859C3.88782 3.04688 3.54688 3.38792 3.54688 3.80859V8.37891C3.54688 8.79958 3.88782 9.14062 4.30859 9.14062C4.72937 9.14062 5.07031 8.79958 5.07031 8.37891V4.57031H47.9297V47.4297H5.07031V11.4258C5.07031 11.0051 4.72937 10.6641 4.30859 10.6641C3.88782 10.6641 3.54688 11.0051 3.54688 11.4258V48.1914C3.54688 48.6121 3.88782 48.9531 4.30859 48.9531H48.6914C49.1122 48.9531 49.4531 48.6121 49.4531 48.1914V3.80859C49.4531 3.38792 49.1122 3.04688 48.6914 3.04688Z" fill="#3035C4"/>
<path d="M27.9882 22.5169C27.6407 22.4384 27.2857 22.611 27.1325 22.9324L24.0019 29.5066C23.8896 29.7426 23.9061 30.0198 24.0456 30.2408C24.1852 30.4618 24.4284 30.5959 24.6897 30.5959H27.8203C28.2411 30.5959 28.582 30.2548 28.582 29.8341V23.2599C28.582 22.9038 28.3354 22.5954 27.9882 22.5169ZM27.0586 29.0724H25.8961L27.0586 26.6312V29.0724Z" fill="#E6514A"/>
<path d="M32.6446 29.304V14.2697C32.6445 12.9554 31.7491 11.8351 30.4672 11.5454C30.265 11.4997 30.0577 11.4766 29.851 11.4766C28.7803 11.4766 27.7907 12.1016 27.33 13.069L18.9511 30.6647C18.5366 31.5351 18.5965 32.5414 19.1111 33.3565C19.6257 34.1716 20.5087 34.6583 21.4727 34.6583H27.0587V37.7306C27.0587 39.2707 28.3117 40.5235 29.8517 40.5235C31.3916 40.5235 32.6446 39.2707 32.6446 37.7306V34.4266C33.6449 33.9923 34.3204 32.9989 34.3204 31.8653C34.3204 30.7318 33.6449 29.7384 32.6446 29.304ZM31.7504 33.1156C31.3864 33.1798 31.1211 33.4961 31.1211 33.8657V37.7307C31.1211 38.4307 30.5516 39.0002 29.8516 39.0002C29.1515 39.0002 28.582 38.4307 28.582 37.7307V33.8967C28.582 33.476 28.2411 33.135 27.8203 33.135H21.4726C21.0345 33.135 20.6331 32.9138 20.3992 32.5433C20.1652 32.1728 20.1381 31.7152 20.3264 31.3196L28.7053 13.7239C28.9148 13.2841 29.3645 13 29.8509 13C29.9448 13 30.0391 13.0106 30.1314 13.0314C30.714 13.163 31.1211 13.6723 31.1211 14.2697V29.8652C31.1211 30.2347 31.3864 30.551 31.7504 30.6153C32.3568 30.7224 32.7969 31.248 32.7969 31.8654C32.7969 32.4828 32.3568 33.0085 31.7504 33.1156Z" fill="#E6514A"/>
</svg>
