<svg width="53" height="52" viewBox="0 0 53 52" fill="none" xmlns="http://www.w3.org/2000/svg">
<path d="M51.7383 0H1.26172C0.841047 0 0.5 0.341047 0.5 0.761719V51.2383C0.5 51.659 0.841047 52 1.26172 52H51.7383C52.159 52 52.5 51.659 52.5 51.2383V0.761719C52.5 0.341047 52.159 0 51.7383 0ZM50.9766 50.4766H2.02344V1.52344H50.9766V50.4766Z" fill="#3035C4"/>
<path d="M48.6914 3.04688H4.30859C3.88792 3.04688 3.54688 3.38792 3.54688 3.80859V8.37891C3.54688 8.79958 3.88792 9.14062 4.30859 9.14062C4.72927 9.14062 5.07031 8.79958 5.07031 8.37891V4.57031H47.9297V47.4297H5.07031V11.4258C5.07031 11.0051 4.72927 10.6641 4.30859 10.6641C3.88792 10.6641 3.54688 11.0051 3.54688 11.4258V48.1914C3.54688 48.6121 3.88792 48.9531 4.30859 48.9531H48.6914C49.1121 48.9531 49.4531 48.6121 49.4531 48.1914V3.80859C49.4531 3.38792 49.1121 3.04688 48.6914 3.04688Z" fill="#3035C4"/>
<path d="M28.4051 11.6221C28.1175 11.5255 27.8184 11.4766 27.5159 11.4766C26.6465 11.4766 25.8142 11.8902 25.2895 12.5832L20.2113 19.2863C19.2814 20.5139 19.5236 22.2692 20.7511 23.1991C21.2406 23.5699 21.8231 23.7659 22.4358 23.7659C23.3192 23.7659 24.1312 23.3625 24.6638 22.6594L24.7227 22.5818V37.7305C24.7227 39.2706 25.9755 40.5234 27.5156 40.5234C29.0557 40.5234 30.3086 39.2706 30.3086 37.7305V14.2696C30.3086 13.0687 29.5437 12.0047 28.4051 11.6221ZM28.7853 37.7305C28.7853 38.4305 28.2158 39 27.5157 39C26.8157 39 26.2462 38.4305 26.2462 37.7305V20.3147C26.2462 19.9875 26.0372 19.6969 25.7271 19.5927C25.6474 19.5659 25.5656 19.553 25.4846 19.553C25.2507 19.553 25.0241 19.6611 24.8773 19.8549L23.4496 21.7394C23.2074 22.059 22.838 22.2424 22.436 22.2424C22.1581 22.2424 21.8936 22.1533 21.671 21.9847C21.113 21.562 21.0029 20.7641 21.4256 20.2062L26.5038 13.503C26.7423 13.1881 27.1207 13 27.5159 13C27.6531 13 27.7891 13.0223 27.92 13.0662C28.4375 13.2401 28.7853 13.7237 28.7853 14.2696V37.7305Z" fill="#E6514A"/>
</svg>
