<svg width="53" height="52" viewBox="0 0 53 52" fill="none" xmlns="http://www.w3.org/2000/svg">
<path d="M51.7383 0H1.26172C0.841047 0 0.5 0.341047 0.5 0.761719V51.2383C0.5 51.659 0.841047 52 1.26172 52H51.7383C52.1591 52 52.5 51.659 52.5 51.2383V0.761719C52.5 0.341047 52.1591 0 51.7383 0ZM50.9766 50.4766H2.02344V1.52344H50.9766V50.4766Z" fill="#3035C4"/>
<path d="M48.6914 3.04688H4.30859C3.88792 3.04688 3.54688 3.38792 3.54688 3.80859V8.37891C3.54688 8.79958 3.88792 9.14062 4.30859 9.14062C4.72927 9.14062 5.07031 8.79958 5.07031 8.37891V4.57031H47.9297V47.4297H5.07031V11.4258C5.07031 11.0051 4.72927 10.6641 4.30859 10.6641C3.88792 10.6641 3.54688 11.0051 3.54688 11.4258V48.1914C3.54688 48.6121 3.88792 48.9531 4.30859 48.9531H48.6914C49.1122 48.9531 49.4531 48.6121 49.4531 48.1914V3.80859C49.4531 3.38792 49.1122 3.04688 48.6914 3.04688Z" fill="#3035C4"/>
<path d="M34.3203 19.2969C34.3203 14.9847 30.8121 11.4766 26.5 11.4766C22.1879 11.4766 18.6797 14.9847 18.6797 19.2969C18.6797 20.837 19.9326 22.0898 21.4727 22.0898C23.0128 22.0898 24.2656 20.837 24.2656 19.2969C24.2656 18.0648 25.2679 17.0625 26.5 17.0625C27.7321 17.0625 28.7344 18.0648 28.7344 19.2969V20.9727C28.7344 22.2047 27.7321 23.207 26.5 23.207C24.9599 23.207 23.707 24.4599 23.707 26C23.707 27.5401 24.9599 28.793 26.5 28.793C27.7321 28.793 28.7344 29.7953 28.7344 31.0273V32.7031C28.7344 33.9352 27.7321 34.9375 26.5 34.9375C25.2679 34.9375 24.2656 33.9352 24.2656 32.7031C24.2656 31.163 23.0128 29.9102 21.4727 29.9102C19.9326 29.9102 18.6797 31.163 18.6797 32.7031C18.6797 37.0153 22.1879 40.5234 26.5 40.5234C30.8121 40.5234 34.3203 37.0153 34.3203 32.7031V31.0273C34.3203 29.1664 33.6744 27.4071 32.4872 26C33.6744 24.5929 34.3203 22.8336 34.3203 20.9727V19.2969ZM32.7969 20.9727C32.7969 22.67 32.1288 24.2627 30.9156 25.4573C30.7702 25.6005 30.6884 25.796 30.6884 26C30.6884 26.204 30.7703 26.3995 30.9156 26.5427C32.1288 27.7373 32.7969 29.33 32.7969 31.0273V32.7031C32.7969 36.1752 29.9721 39 26.5 39C23.0279 39 20.2031 36.1752 20.2031 32.7031C20.2031 32.0031 20.7726 31.4336 21.4727 31.4336C22.1727 31.4336 22.7422 32.0031 22.7422 32.7031C22.7422 34.7752 24.4279 36.4609 26.5 36.4609C28.5721 36.4609 30.2578 34.7752 30.2578 32.7031V31.0273C30.2578 28.9553 28.5721 27.2695 26.5 27.2695C25.7999 27.2695 25.2305 26.7001 25.2305 26C25.2305 25.2999 25.7999 24.7305 26.5 24.7305C28.5721 24.7305 30.2578 23.0447 30.2578 20.9727V19.2969C30.2578 17.2248 28.5721 15.5391 26.5 15.5391C24.4279 15.5391 22.7422 17.2248 22.7422 19.2969C22.7422 19.9969 22.1727 20.5664 21.4727 20.5664C20.7726 20.5664 20.2031 19.9969 20.2031 19.2969C20.2031 15.8248 23.0279 13 26.5 13C29.9721 13 32.7969 15.8248 32.7969 19.2969V20.9727Z" fill="#E6514A"/>
</svg>
