<svg width="53" height="52" viewBox="0 0 53 52" fill="none" xmlns="http://www.w3.org/2000/svg">
<path d="M51.7383 0H1.26169C0.841016 0 0.499969 0.341047 0.499969 0.761719V51.2383C0.499969 51.659 0.841016 52 1.26169 52H51.7383C52.1589 52 52.5 51.659 52.5 51.2383V0.761719C52.5 0.341047 52.1589 0 51.7383 0ZM50.9765 50.4766H2.02341V1.52344H50.9765V50.4766Z" fill="#3035C4"/>
<path d="M48.6914 3.04688H4.30856C3.88789 3.04688 3.54684 3.38792 3.54684 3.80859V8.37891C3.54684 8.79958 3.88789 9.14062 4.30856 9.14062C4.72924 9.14062 5.07028 8.79958 5.07028 8.37891V4.57031H47.9297V47.4297H5.07028V11.4258C5.07028 11.0051 4.72924 10.6641 4.30856 10.6641C3.88789 10.6641 3.54684 11.0051 3.54684 11.4258V48.1914C3.54684 48.6121 3.88789 48.9531 4.30856 48.9531H48.6914C49.112 48.9531 49.4531 48.6121 49.4531 48.1914V3.80859C49.4531 3.38792 49.112 3.04688 48.6914 3.04688Z" fill="#3035C4"/>
<path d="M31.5273 34.9375H26.3602L33.2389 23.2641C33.9463 22.064 34.3203 20.6921 34.3203 19.2969C34.3203 14.9847 30.8121 11.4766 26.5 11.4766C22.1878 11.4766 18.6797 14.9847 18.6797 19.2969C18.6797 20.837 19.9325 22.0898 21.4726 22.0898C23.0127 22.0898 24.2656 20.837 24.2656 19.2969C24.2656 18.0648 25.2679 17.0625 26.5 17.0625C27.732 17.0625 28.7343 18.0648 28.7343 19.2969C28.7343 19.6952 28.6279 20.0862 28.4266 20.4279L19.0664 36.3126C18.5588 37.1739 18.5517 38.2482 19.0477 39.1162C19.5436 39.9842 20.4728 40.5234 21.4726 40.5234H31.5273C33.0674 40.5234 34.3203 39.2706 34.3203 37.7305C34.3203 36.1904 33.0674 34.9375 31.5273 34.9375ZM31.5273 39.0001H21.4726C21.0182 39.0001 20.5958 38.7549 20.3704 38.3605C20.1449 37.9659 20.1481 37.4777 20.3788 37.0862L29.739 21.2016C30.0784 20.6256 30.2578 19.9671 30.2578 19.2969C30.2578 17.2248 28.572 15.5391 26.5 15.5391C24.4279 15.5391 22.7422 17.2248 22.7422 19.2969C22.7422 19.9969 22.1727 20.5664 21.4726 20.5664C20.7726 20.5664 20.2031 19.9969 20.2031 19.2969C20.2031 15.8248 23.0279 13 26.5 13C29.9721 13 32.7968 15.8248 32.7968 19.2969C32.7968 20.4203 32.4959 21.5246 31.9265 22.4906L24.371 35.3126C24.2322 35.5481 24.2303 35.8399 24.3659 36.0772C24.5016 36.3146 24.7539 36.461 25.0273 36.461H31.5273C32.2274 36.461 32.7968 37.0305 32.7968 37.7306C32.7968 38.4306 32.2274 39.0001 31.5273 39.0001Z" fill="#E6514A"/>
</svg>
