<svg width="195" height="35" viewBox="0 0 195 35" fill="none" xmlns="http://www.w3.org/2000/svg">
<path d="M35.568 15.256V12.376H32.768V10.408H35.568V7.528H37.776V10.408H40.576V12.376H37.776V15.256H35.568ZM43.0958 9.4V5.816H51.1758V7.704L46.6478 17H43.9278L48.2478 7.96H45.4318V9.4H43.0958ZM63.2201 4.936C62.5801 5.85333 62.0361 6.97333 61.5881 8.296C61.1508 9.608 60.9321 10.84 60.9321 11.992C60.9321 13.1333 61.1508 14.3653 61.5881 15.688C62.0361 17.0107 62.5801 18.1253 63.2201 19.032H60.6281C60.1055 18.296 59.6255 17.2613 59.1881 15.928C58.7615 14.584 58.5481 13.272 58.5481 11.992C58.5481 10.712 58.7615 9.4 59.1881 8.056C59.6255 6.712 60.1055 5.672 60.6281 4.936H63.2201ZM68.8688 14.984C69.5621 14.984 70.0954 14.7547 70.4688 14.296C70.8528 13.8267 71.0874 13.192 71.1728 12.392C70.4901 12.8507 69.7541 13.08 68.9648 13.08C67.9194 13.08 67.0448 12.7387 66.3408 12.056C65.6474 11.3627 65.3008 10.4507 65.3008 9.32C65.3008 8.18933 65.6741 7.28267 66.4208 6.6C67.1781 5.90667 68.1274 5.56 69.2688 5.56C70.0581 5.56 70.7408 5.71467 71.3168 6.024C71.9034 6.32267 72.3621 6.744 72.6927 7.288C73.3221 8.344 73.6368 9.66667 73.6368 11.256C73.6368 12.28 73.5088 13.1813 73.2528 13.96C73.0074 14.728 72.6714 15.336 72.2448 15.784C71.3701 16.68 70.3088 17.128 69.0608 17.128C68.5381 17.128 68.0368 17.0533 67.5568 16.904C67.0768 16.744 66.7141 16.5893 66.4688 16.44C66.2234 16.28 65.9408 16.0773 65.6208 15.832L66.8688 14.072C66.9434 14.136 67.0394 14.2213 67.1568 14.328C67.2848 14.424 67.5248 14.5573 67.8768 14.728C68.2288 14.8987 68.5594 14.984 68.8688 14.984ZM69.2048 10.952C69.7061 10.952 70.1221 10.808 70.4528 10.52C70.7834 10.232 70.9488 9.85333 70.9488 9.384C70.9488 8.91467 70.7888 8.50933 70.4688 8.168C70.1488 7.82667 69.7488 7.656 69.2688 7.656C68.7888 7.656 68.3941 7.81067 68.0848 8.12C67.7861 8.41867 67.6368 8.80267 67.6368 9.272C67.6368 9.74133 67.7754 10.1413 68.0528 10.472C68.3301 10.792 68.7141 10.952 69.2048 10.952ZM76.0273 5.816H80.5553V17H78.1553V7.944H76.0273V5.816ZM91.0804 5.816V7.976H86.6644V9.848C86.995 9.752 87.3737 9.704 87.8004 9.704C88.8777 9.704 89.8057 10.0293 90.5844 10.68C91.363 11.3307 91.7524 12.2107 91.7524 13.32C91.7524 14.4187 91.347 15.3307 90.5364 16.056C89.7364 16.7707 88.7444 17.128 87.5604 17.128C86.0457 17.128 84.7817 16.568 83.7684 15.448L85.0804 13.624C85.1764 13.72 85.3044 13.8373 85.4644 13.976C85.6244 14.1147 85.9177 14.3013 86.3444 14.536C86.771 14.76 87.1977 14.872 87.6244 14.872C88.051 14.872 88.4297 14.744 88.7604 14.488C89.091 14.232 89.2564 13.8533 89.2564 13.352C89.2564 12.8507 89.075 12.4667 88.7124 12.2C88.3604 11.9227 87.9017 11.784 87.3364 11.784C86.771 11.784 86.115 11.9867 85.3684 12.392L84.3284 11.272V5.816H91.0804ZM93.9156 19.032C94.5556 18.1253 95.0943 17.0107 95.5316 15.688C95.9796 14.3653 96.2036 13.1333 96.2036 11.992C96.2036 10.84 95.9796 9.608 95.5316 8.296C95.0943 6.97333 94.5556 5.85333 93.9156 4.936H96.5076C97.0303 5.672 97.505 6.712 97.9316 8.056C98.369 9.4 98.5876 10.712 98.5876 11.992C98.5876 13.272 98.369 14.584 97.9316 15.928C97.505 17.2613 97.0303 18.296 96.5076 19.032H93.9156ZM106.731 7.944V5.816H113.579V7.544L111.291 10.152C112.187 10.3013 112.881 10.68 113.371 11.288C113.862 11.8853 114.107 12.5787 114.107 13.368C114.107 14.5413 113.707 15.464 112.907 16.136C112.118 16.7973 111.105 17.128 109.867 17.128C108.63 17.128 107.377 16.6907 106.107 15.816L107.131 13.832C108.187 14.5787 109.131 14.952 109.963 14.952C110.465 14.952 110.875 14.8293 111.195 14.584C111.526 14.3387 111.691 13.9867 111.691 13.528C111.691 13.0587 111.505 12.6907 111.131 12.424C110.758 12.1467 110.241 12.008 109.579 12.008C109.227 12.008 108.731 12.1093 108.091 12.312V10.472L110.235 7.944H106.731ZM124.08 5.816V7.976H119.664V9.848C119.995 9.752 120.374 9.704 120.8 9.704C121.878 9.704 122.806 10.0293 123.584 10.68C124.363 11.3307 124.752 12.2107 124.752 13.32C124.752 14.4187 124.347 15.3307 123.536 16.056C122.736 16.7707 121.744 17.128 120.56 17.128C119.046 17.128 117.782 16.568 116.768 15.448L118.08 13.624C118.176 13.72 118.304 13.8373 118.464 13.976C118.624 14.1147 118.918 14.3013 119.344 14.536C119.771 14.76 120.198 14.872 120.624 14.872C121.051 14.872 121.43 14.744 121.76 14.488C122.091 14.232 122.256 13.8533 122.256 13.352C122.256 12.8507 122.075 12.4667 121.712 12.2C121.36 11.9227 120.902 11.784 120.336 11.784C119.771 11.784 119.115 11.9867 118.368 12.392L117.328 11.272V5.816H124.08ZM130.916 14.984C131.609 14.984 132.142 14.7547 132.516 14.296C132.9 13.8267 133.134 13.192 133.22 12.392C132.537 12.8507 131.801 13.08 131.012 13.08C129.966 13.08 129.092 12.7387 128.388 12.056C127.694 11.3627 127.348 10.4507 127.348 9.32C127.348 8.18933 127.721 7.28267 128.468 6.6C129.225 5.90667 130.174 5.56 131.316 5.56C132.105 5.56 132.788 5.71467 133.364 6.024C133.95 6.32267 134.409 6.744 134.74 7.288C135.369 8.344 135.684 9.66667 135.684 11.256C135.684 12.28 135.556 13.1813 135.3 13.96C135.054 14.728 134.718 15.336 134.292 15.784C133.417 16.68 132.356 17.128 131.108 17.128C130.585 17.128 130.084 17.0533 129.604 16.904C129.124 16.744 128.761 16.5893 128.516 16.44C128.27 16.28 127.988 16.0773 127.668 15.832L128.916 14.072C128.99 14.136 129.086 14.2213 129.204 14.328C129.332 14.424 129.572 14.5573 129.924 14.728C130.276 14.8987 130.606 14.984 130.916 14.984ZM131.252 10.952C131.753 10.952 132.169 10.808 132.5 10.52C132.83 10.232 132.996 9.85333 132.996 9.384C132.996 8.91467 132.836 8.50933 132.516 8.168C132.196 7.82667 131.796 7.656 131.316 7.656C130.836 7.656 130.441 7.81067 130.132 8.12C129.833 8.41867 129.684 8.80267 129.684 9.272C129.684 9.74133 129.822 10.1413 130.1 10.472C130.377 10.792 130.761 10.952 131.252 10.952ZM138.65 13.256V11.128H144.346V13.256H138.65ZM150.822 14.984C151.515 14.984 152.049 14.7547 152.422 14.296C152.806 13.8267 153.041 13.192 153.126 12.392C152.443 12.8507 151.707 13.08 150.918 13.08C149.873 13.08 148.998 12.7387 148.294 12.056C147.601 11.3627 147.254 10.4507 147.254 9.32C147.254 8.18933 147.627 7.28267 148.374 6.6C149.131 5.90667 150.081 5.56 151.222 5.56C152.011 5.56 152.694 5.71467 153.27 6.024C153.857 6.32267 154.315 6.744 154.646 7.288C155.275 8.344 155.59 9.66667 155.59 11.256C155.59 12.28 155.462 13.1813 155.206 13.96C154.961 14.728 154.625 15.336 154.198 15.784C153.323 16.68 152.262 17.128 151.014 17.128C150.491 17.128 149.99 17.0533 149.51 16.904C149.03 16.744 148.667 16.5893 148.422 16.44C148.177 16.28 147.894 16.0773 147.574 15.832L148.822 14.072C148.897 14.136 148.993 14.2213 149.11 14.328C149.238 14.424 149.478 14.5573 149.83 14.728C150.182 14.8987 150.513 14.984 150.822 14.984ZM151.158 10.952C151.659 10.952 152.075 10.808 152.406 10.52C152.737 10.232 152.902 9.85333 152.902 9.384C152.902 8.91467 152.742 8.50933 152.422 8.168C152.102 7.82667 151.702 7.656 151.222 7.656C150.742 7.656 150.347 7.81067 150.038 8.12C149.739 8.41867 149.59 8.80267 149.59 9.272C149.59 9.74133 149.729 10.1413 150.006 10.472C150.283 10.792 150.667 10.952 151.158 10.952ZM165.58 5.816V7.976H161.164V9.848C161.495 9.752 161.874 9.704 162.3 9.704C163.378 9.704 164.306 10.0293 165.084 10.68C165.863 11.3307 166.252 12.2107 166.252 13.32C166.252 14.4187 165.847 15.3307 165.036 16.056C164.236 16.7707 163.244 17.128 162.06 17.128C160.546 17.128 159.282 16.568 158.268 15.448L159.58 13.624C159.676 13.72 159.804 13.8373 159.964 13.976C160.124 14.1147 160.418 14.3013 160.844 14.536C161.271 14.76 161.698 14.872 162.124 14.872C162.551 14.872 162.93 14.744 163.26 14.488C163.591 14.232 163.756 13.8533 163.756 13.352C163.756 12.8507 163.575 12.4667 163.212 12.2C162.86 11.9227 162.402 11.784 161.836 11.784C161.271 11.784 160.615 11.9867 159.868 12.392L158.828 11.272V5.816H165.58ZM169.088 13.256V11.128H174.784V13.256H169.088ZM176.98 5.816H181.508V17H179.108V7.944H176.98V5.816ZM188.338 14.984C189.031 14.984 189.564 14.7547 189.938 14.296C190.322 13.8267 190.556 13.192 190.642 12.392C189.959 12.8507 189.223 13.08 188.434 13.08C187.388 13.08 186.514 12.7387 185.81 12.056C185.116 11.3627 184.77 10.4507 184.77 9.32C184.77 8.18933 185.143 7.28267 185.89 6.6C186.647 5.90667 187.596 5.56 188.738 5.56C189.527 5.56 190.21 5.71467 190.786 6.024C191.372 6.32267 191.831 6.744 192.161 7.288C192.791 8.344 193.106 9.66667 193.106 11.256C193.106 12.28 192.978 13.1813 192.722 13.96C192.476 14.728 192.14 15.336 191.714 15.784C190.839 16.68 189.778 17.128 188.53 17.128C188.007 17.128 187.506 17.0533 187.026 16.904C186.546 16.744 186.183 16.5893 185.938 16.44C185.692 16.28 185.41 16.0773 185.09 15.832L186.338 14.072C186.412 14.136 186.508 14.2213 186.626 14.328C186.754 14.424 186.994 14.5573 187.346 14.728C187.698 14.8987 188.028 14.984 188.338 14.984ZM188.674 10.952C189.175 10.952 189.591 10.808 189.922 10.52C190.252 10.232 190.418 9.85333 190.418 9.384C190.418 8.91467 190.258 8.50933 189.938 8.168C189.618 7.82667 189.218 7.656 188.738 7.656C188.258 7.656 187.863 7.81067 187.554 8.12C187.255 8.41867 187.106 8.80267 187.106 9.272C187.106 9.74133 187.244 10.1413 187.522 10.472C187.799 10.792 188.183 10.952 188.674 10.952Z" fill="white"/>
<path d="M64.1025 30.1695C64.1025 30.8115 64.1835 31.4355 64.3455 32.0415C64.5105 32.6475 64.7505 33.2235 65.0655 33.7695C65.1135 33.8625 65.1255 33.933 65.1015 33.981C65.0775 34.032 65.043 34.0725 64.998 34.1025L64.6425 34.3185C64.4175 33.9735 64.2255 33.6315 64.0665 33.2925C63.9105 32.9535 63.783 32.613 63.684 32.271C63.588 31.929 63.5175 31.5855 63.4725 31.2405C63.4275 30.8925 63.405 30.5355 63.405 30.1695C63.405 29.8065 63.4275 29.451 63.4725 29.103C63.5175 28.755 63.588 28.4115 63.684 28.0725C63.783 27.7305 63.9105 27.39 64.0665 27.051C64.2255 26.712 64.4175 26.3685 64.6425 26.0205L64.998 26.241C65.043 26.271 65.0775 26.3115 65.1015 26.3625C65.1255 26.4105 65.1135 26.4795 65.0655 26.5695C64.7505 27.1155 64.5105 27.6915 64.3455 28.2975C64.1835 28.9035 64.1025 29.5275 64.1025 30.1695ZM70.5834 27.285H68.4954V33H67.6269V27.285H65.5344V26.5515H70.5834V27.285ZM72.1742 28.3695C72.5072 28.3695 72.8072 28.425 73.0742 28.536C73.3412 28.647 73.5692 28.8045 73.7582 29.0085C73.9472 29.2125 74.0912 29.46 74.1902 29.751C74.2922 30.039 74.3432 30.3615 74.3432 30.7185C74.3432 31.0785 74.2922 31.4025 74.1902 31.6905C74.0912 31.9785 73.9472 32.2245 73.7582 32.4285C73.5692 32.6325 73.3412 32.79 73.0742 32.901C72.8072 33.009 72.5072 33.063 72.1742 33.063C71.8382 33.063 71.5352 33.009 71.2652 32.901C70.9982 32.79 70.7702 32.6325 70.5812 32.4285C70.3922 32.2245 70.2467 31.9785 70.1447 31.6905C70.0457 31.4025 69.9962 31.0785 69.9962 30.7185C69.9962 30.3615 70.0457 30.039 70.1447 29.751C70.2467 29.46 70.3922 29.2125 70.5812 29.0085C70.7702 28.8045 70.9982 28.647 71.2652 28.536C71.5352 28.425 71.8382 28.3695 72.1742 28.3695ZM72.1742 32.4375C72.6242 32.4375 72.9602 32.2875 73.1822 31.9875C73.4042 31.6845 73.5152 31.263 73.5152 30.723C73.5152 30.18 73.4042 29.757 73.1822 29.454C72.9602 29.151 72.6242 28.9995 72.1742 28.9995C71.9462 28.9995 71.7467 29.0385 71.5757 29.1165C71.4077 29.1945 71.2667 29.307 71.1527 29.454C71.0417 29.601 70.9577 29.7825 70.9007 29.9985C70.8467 30.2115 70.8197 30.453 70.8197 30.723C70.8197 31.263 70.9307 31.6845 71.1527 31.9875C71.3777 32.2875 71.7182 32.4375 72.1742 32.4375ZM79.2233 33H78.4223V29.0715H76.9823C76.9463 29.6505 76.8923 30.1515 76.8203 30.5745C76.7483 30.9945 76.6613 31.353 76.5593 31.65C76.4603 31.944 76.3478 32.184 76.2218 32.37C76.0988 32.553 75.9683 32.6955 75.8303 32.7975C75.6953 32.8995 75.5543 32.9685 75.4073 33.0045C75.2633 33.0405 75.1193 33.0585 74.9753 33.0585C74.7203 33.0585 74.5928 33.018 74.5928 32.937V32.4285H74.8268C74.9288 32.4285 75.0323 32.4105 75.1373 32.3745C75.2423 32.3385 75.3443 32.2695 75.4433 32.1675C75.5453 32.0655 75.6428 31.923 75.7358 31.74C75.8288 31.554 75.9128 31.314 75.9878 31.02C76.0658 30.723 76.1318 30.3645 76.1858 29.9445C76.2428 29.5215 76.2863 29.0205 76.3163 28.4415H79.2233V33ZM82.2424 32.415C82.4044 32.415 82.5439 32.3955 82.6609 32.3565C82.7809 32.3145 82.8799 32.2575 82.9579 32.1855C83.0359 32.1105 83.0944 32.0235 83.1334 31.9245C83.1724 31.8255 83.1919 31.7175 83.1919 31.6005C83.1919 31.4925 83.1754 31.392 83.1424 31.299C83.1094 31.203 83.0539 31.119 82.9759 31.047C82.9009 30.975 82.8019 30.918 82.6789 30.876C82.5559 30.834 82.4059 30.813 82.2289 30.813H81.2614V32.415H82.2424ZM82.2289 30.228C82.5439 30.228 82.8079 30.2655 83.0209 30.3405C83.2369 30.4155 83.4094 30.516 83.5384 30.642C83.6704 30.768 83.7649 30.9135 83.8219 31.0785C83.8789 31.2435 83.9074 31.4145 83.9074 31.5915C83.9074 31.7955 83.8714 31.9845 83.7994 32.1585C83.7274 32.3295 83.6209 32.478 83.4799 32.604C83.3389 32.727 83.1649 32.8245 82.9579 32.8965C82.7509 32.9655 82.5124 33 82.2424 33H80.4919V28.4415H81.2614V30.228H82.2289ZM87.5661 28.6665C87.6081 28.6005 87.6636 28.5465 87.7326 28.5045C87.8016 28.4625 87.8751 28.4415 87.9531 28.4415H88.5786L87.3951 30.1785C87.3231 30.2895 87.2481 30.381 87.1701 30.453C87.0921 30.522 86.9961 30.576 86.8821 30.615C87.0261 30.654 87.1476 30.7155 87.2466 30.7995C87.3456 30.8805 87.4341 30.9855 87.5121 31.1145L88.7091 33H88.1511C88.0071 33 87.8961 32.976 87.8181 32.928C87.7401 32.88 87.6726 32.811 87.6156 32.721L86.7291 31.3035C86.5881 31.0695 86.3766 30.9525 86.0946 30.9525H85.6041V33.0045H84.7986V28.4415H85.6041V30.4125H86.0361C86.2761 30.4125 86.4636 30.3105 86.5986 30.1065L87.5661 28.6665ZM91.2025 28.3695C91.5355 28.3695 91.8355 28.425 92.1025 28.536C92.3695 28.647 92.5975 28.8045 92.7865 29.0085C92.9755 29.2125 93.1195 29.46 93.2185 29.751C93.3205 30.039 93.3715 30.3615 93.3715 30.7185C93.3715 31.0785 93.3205 31.4025 93.2185 31.6905C93.1195 31.9785 92.9755 32.2245 92.7865 32.4285C92.5975 32.6325 92.3695 32.79 92.1025 32.901C91.8355 33.009 91.5355 33.063 91.2025 33.063C90.8665 33.063 90.5635 33.009 90.2935 32.901C90.0265 32.79 89.7985 32.6325 89.6095 32.4285C89.4205 32.2245 89.275 31.9785 89.173 31.6905C89.074 31.4025 89.0245 31.0785 89.0245 30.7185C89.0245 30.3615 89.074 30.039 89.173 29.751C89.275 29.46 89.4205 29.2125 89.6095 29.0085C89.7985 28.8045 90.0265 28.647 90.2935 28.536C90.5635 28.425 90.8665 28.3695 91.2025 28.3695ZM91.2025 32.4375C91.6525 32.4375 91.9885 32.2875 92.2105 31.9875C92.4325 31.6845 92.5435 31.263 92.5435 30.723C92.5435 30.18 92.4325 29.757 92.2105 29.454C91.9885 29.151 91.6525 28.9995 91.2025 28.9995C90.9745 28.9995 90.775 29.0385 90.604 29.1165C90.436 29.1945 90.295 29.307 90.181 29.454C90.07 29.601 89.986 29.7825 89.929 29.9985C89.875 30.2115 89.848 30.453 89.848 30.723C89.848 31.263 89.959 31.6845 90.181 31.9875C90.406 32.2875 90.7465 32.4375 91.2025 32.4375ZM99.8312 32.415V29.0715H98.3867C98.3567 29.5395 98.3147 29.9535 98.2607 30.3135C98.2067 30.6735 98.1437 30.99 98.0717 31.263C98.0027 31.533 97.9247 31.7625 97.8377 31.9515C97.7537 32.1405 97.6652 32.295 97.5722 32.415H99.8312ZM101.442 32.3925V34.323C101.442 34.401 101.42 34.461 101.375 34.503C101.333 34.548 101.277 34.5705 101.208 34.5705H100.718V33H96.8837V34.341C96.8837 34.398 96.8657 34.4505 96.8297 34.4985C96.7967 34.5465 96.7412 34.5705 96.6632 34.5705H96.1592V32.415H96.3077C96.4127 32.415 96.5162 32.397 96.6182 32.361C96.7232 32.325 96.8237 32.2575 96.9197 32.1585C97.0157 32.0565 97.1057 31.914 97.1897 31.731C97.2767 31.548 97.3547 31.3095 97.4237 31.0155C97.4927 30.7215 97.5527 30.3645 97.6037 29.9445C97.6547 29.5215 97.6952 29.0205 97.7252 28.4415H100.61V32.3925H101.442ZM106.25 33H105.449V29.0715H104.009C103.973 29.6505 103.919 30.1515 103.847 30.5745C103.775 30.9945 103.688 31.353 103.586 31.65C103.487 31.944 103.374 32.184 103.248 32.37C103.125 32.553 102.995 32.6955 102.857 32.7975C102.722 32.8995 102.581 32.9685 102.434 33.0045C102.29 33.0405 102.146 33.0585 102.002 33.0585C101.747 33.0585 101.619 33.018 101.619 32.937V32.4285H101.853C101.955 32.4285 102.059 32.4105 102.164 32.3745C102.269 32.3385 102.371 32.2695 102.47 32.1675C102.572 32.0655 102.669 31.923 102.762 31.74C102.855 31.554 102.939 31.314 103.014 31.02C103.092 30.723 103.158 30.3645 103.212 29.9445C103.269 29.5215 103.313 29.0205 103.343 28.4415H106.25V33ZM109.917 30.57V28.9815H109.152C108.981 28.9815 108.837 29.007 108.72 29.058C108.603 29.106 108.508 29.169 108.436 29.247C108.367 29.322 108.318 29.4075 108.288 29.5035C108.258 29.5965 108.243 29.6895 108.243 29.7825C108.243 30.0285 108.333 30.222 108.513 30.363C108.693 30.501 108.939 30.57 109.251 30.57H109.917ZM110.682 28.4415V33H109.917V31.0785H109.566C109.482 31.0785 109.411 31.086 109.354 31.101C109.3 31.113 109.252 31.131 109.21 31.155C109.171 31.179 109.137 31.2105 109.107 31.2495C109.077 31.2855 109.045 31.3275 109.012 31.3755L108.013 32.721C107.962 32.817 107.899 32.8875 107.824 32.9325C107.752 32.9775 107.646 33 107.505 33H106.947L108.27 31.281C108.378 31.101 108.52 30.981 108.697 30.921C108.466 30.891 108.271 30.837 108.112 30.759C107.953 30.681 107.823 30.5895 107.721 30.4845C107.622 30.3765 107.55 30.258 107.505 30.129C107.46 30 107.437 29.8695 107.437 29.7375C107.437 29.5815 107.467 29.4255 107.527 29.2695C107.59 29.1135 107.689 28.9755 107.824 28.8555C107.959 28.7325 108.133 28.6335 108.346 28.5585C108.562 28.4805 108.823 28.4415 109.129 28.4415H110.682ZM117.432 29.2515C117.408 29.2845 117.384 29.31 117.36 29.328C117.336 29.346 117.303 29.355 117.261 29.355C117.216 29.355 117.167 29.337 117.113 29.301C117.059 29.262 116.991 29.22 116.91 29.175C116.832 29.13 116.735 29.0895 116.618 29.0535C116.504 29.0145 116.363 28.995 116.195 28.995C115.97 28.995 115.772 29.0355 115.601 29.1165C115.43 29.1945 115.286 29.3085 115.169 29.4585C115.055 29.6085 114.968 29.79 114.908 30.003C114.851 30.216 114.822 30.4545 114.822 30.7185C114.822 30.9945 114.854 31.2405 114.917 31.4565C114.98 31.6695 115.068 31.8495 115.182 31.9965C115.299 32.1405 115.439 32.2515 115.601 32.3295C115.766 32.4045 115.95 32.442 116.154 32.442C116.349 32.442 116.51 32.4195 116.636 32.3745C116.762 32.3265 116.865 32.274 116.946 32.217C117.03 32.16 117.099 32.109 117.153 32.064C117.21 32.016 117.266 31.992 117.32 31.992C117.386 31.992 117.437 32.0175 117.473 32.0685L117.698 32.361C117.599 32.484 117.486 32.589 117.36 32.676C117.234 32.763 117.098 32.8365 116.951 32.8965C116.807 32.9535 116.655 32.9955 116.496 33.0225C116.337 33.0495 116.175 33.063 116.01 33.063C115.725 33.063 115.46 33.0105 115.214 32.9055C114.971 32.8005 114.759 32.649 114.579 32.451C114.399 32.25 114.258 32.004 114.156 31.713C114.054 31.422 114.003 31.0905 114.003 30.7185C114.003 30.3795 114.05 30.066 114.143 29.778C114.239 29.49 114.377 29.2425 114.557 29.0355C114.74 28.8255 114.963 28.662 115.227 28.545C115.494 28.428 115.8 28.3695 116.145 28.3695C116.466 28.3695 116.748 28.422 116.991 28.527C117.237 28.629 117.455 28.7745 117.644 28.9635L117.432 29.2515ZM120.4 28.3695C120.733 28.3695 121.033 28.425 121.3 28.536C121.567 28.647 121.795 28.8045 121.984 29.0085C122.173 29.2125 122.317 29.46 122.416 29.751C122.518 30.039 122.569 30.3615 122.569 30.7185C122.569 31.0785 122.518 31.4025 122.416 31.6905C122.317 31.9785 122.173 32.2245 121.984 32.4285C121.795 32.6325 121.567 32.79 121.3 32.901C121.033 33.009 120.733 33.063 120.4 33.063C120.064 33.063 119.761 33.009 119.491 32.901C119.224 32.79 118.996 32.6325 118.807 32.4285C118.618 32.2245 118.472 31.9785 118.37 31.6905C118.271 31.4025 118.222 31.0785 118.222 30.7185C118.222 30.3615 118.271 30.039 118.37 29.751C118.472 29.46 118.618 29.2125 118.807 29.0085C118.996 28.8045 119.224 28.647 119.491 28.536C119.761 28.425 120.064 28.3695 120.4 28.3695ZM120.4 32.4375C120.85 32.4375 121.186 32.2875 121.408 31.9875C121.63 31.6845 121.741 31.263 121.741 30.723C121.741 30.18 121.63 29.757 121.408 29.454C121.186 29.151 120.85 28.9995 120.4 28.9995C120.172 28.9995 119.972 29.0385 119.801 29.1165C119.633 29.1945 119.492 29.307 119.378 29.454C119.267 29.601 119.183 29.7825 119.126 29.9985C119.072 30.2115 119.045 30.453 119.045 30.723C119.045 31.263 119.156 31.6845 119.378 31.9875C119.603 32.2875 119.944 32.4375 120.4 32.4375ZM125.506 28.3695C125.839 28.3695 126.139 28.425 126.406 28.536C126.673 28.647 126.901 28.8045 127.09 29.0085C127.279 29.2125 127.423 29.46 127.522 29.751C127.624 30.039 127.675 30.3615 127.675 30.7185C127.675 31.0785 127.624 31.4025 127.522 31.6905C127.423 31.9785 127.279 32.2245 127.09 32.4285C126.901 32.6325 126.673 32.79 126.406 32.901C126.139 33.009 125.839 33.063 125.506 33.063C125.17 33.063 124.867 33.009 124.597 32.901C124.33 32.79 124.102 32.6325 123.913 32.4285C123.724 32.2245 123.579 31.9785 123.477 31.6905C123.378 31.4025 123.328 31.0785 123.328 30.7185C123.328 30.3615 123.378 30.039 123.477 29.751C123.579 29.46 123.724 29.2125 123.913 29.0085C124.102 28.8045 124.33 28.647 124.597 28.536C124.867 28.425 125.17 28.3695 125.506 28.3695ZM125.506 32.4375C125.956 32.4375 126.292 32.2875 126.514 31.9875C126.736 31.6845 126.847 31.263 126.847 30.723C126.847 30.18 126.736 29.757 126.514 29.454C126.292 29.151 125.956 28.9995 125.506 28.9995C125.278 28.9995 125.079 29.0385 124.908 29.1165C124.74 29.1945 124.599 29.307 124.485 29.454C124.374 29.601 124.29 29.7825 124.233 29.9985C124.179 30.2115 124.152 30.453 124.152 30.723C124.152 31.263 124.263 31.6845 124.485 31.9875C124.71 32.2875 125.05 32.4375 125.506 32.4375ZM130.748 32.469C131.198 32.469 131.537 32.3265 131.765 32.0415C131.996 31.7535 132.111 31.3515 132.111 30.8355C132.111 30.3225 132 29.922 131.778 29.634C131.559 29.346 131.229 29.202 130.788 29.202C130.575 29.202 130.383 29.2365 130.212 29.3055C130.041 29.3715 129.896 29.469 129.776 29.598C129.659 29.727 129.567 29.886 129.501 30.075C129.438 30.264 129.407 30.48 129.407 30.723C129.407 30.996 129.435 31.2405 129.492 31.4565C129.549 31.6725 129.633 31.8555 129.744 32.0055C129.858 32.1555 129.998 32.271 130.163 32.352C130.331 32.43 130.526 32.469 130.748 32.469ZM131.058 27.3705C130.752 27.3975 130.49 27.465 130.271 27.573C130.055 27.681 129.875 27.828 129.731 28.014C129.587 28.197 129.479 28.4175 129.407 28.6755C129.335 28.9335 129.293 29.2245 129.281 29.5485C129.353 29.4045 129.446 29.2755 129.56 29.1615C129.674 29.0445 129.804 28.9455 129.951 28.8645C130.098 28.7805 130.257 28.7175 130.428 28.6755C130.602 28.6305 130.787 28.608 130.982 28.608C131.285 28.608 131.556 28.662 131.796 28.77C132.039 28.875 132.245 29.025 132.413 29.22C132.584 29.415 132.714 29.6505 132.804 29.9265C132.894 30.1995 132.939 30.5025 132.939 30.8355C132.939 31.1745 132.887 31.482 132.782 31.758C132.68 32.031 132.533 32.265 132.341 32.46C132.149 32.652 131.918 32.8005 131.648 32.9055C131.381 33.0105 131.081 33.063 130.748 33.063C130.442 33.063 130.155 33.012 129.888 32.91C129.621 32.808 129.39 32.64 129.195 32.406C129 32.172 128.846 31.8645 128.732 31.4835C128.621 31.0995 128.565 30.627 128.565 30.066C128.565 29.586 128.609 29.145 128.696 28.743C128.783 28.341 128.922 27.9915 129.114 27.6945C129.309 27.3975 129.56 27.159 129.866 26.979C130.175 26.796 130.55 26.685 130.991 26.646L132.62 26.5065L132.665 26.9205C132.674 27.0135 132.66 27.0915 132.624 27.1545C132.588 27.2175 132.524 27.252 132.431 27.258L131.058 27.3705ZM140.926 32.3925V34.323C140.926 34.401 140.904 34.461 140.859 34.503C140.817 34.548 140.761 34.5705 140.692 34.5705H140.197V33H133.956V28.4415H134.761V32.3925H136.62V28.4415H137.425V32.3925H139.284V28.4415H140.089V32.3925H140.926ZM144.706 30.2235C144.706 30.0375 144.679 29.868 144.625 29.715C144.574 29.559 144.498 29.4255 144.396 29.3145C144.297 29.2005 144.175 29.1135 144.031 29.0535C143.887 28.9905 143.724 28.959 143.541 28.959C143.157 28.959 142.852 29.0715 142.627 29.2965C142.405 29.5185 142.267 29.8275 142.213 30.2235H144.706ZM145.354 32.361C145.255 32.481 145.137 32.586 144.999 32.676C144.861 32.763 144.712 32.835 144.553 32.892C144.397 32.949 144.235 32.991 144.067 33.018C143.899 33.048 143.733 33.063 143.568 33.063C143.253 33.063 142.962 33.0105 142.695 32.9055C142.431 32.7975 142.201 32.6415 142.006 32.4375C141.814 32.2305 141.664 31.9755 141.556 31.6725C141.448 31.3695 141.394 31.0215 141.394 30.6285C141.394 30.3105 141.442 30.0135 141.538 29.7375C141.637 29.4615 141.778 29.223 141.961 29.022C142.144 28.818 142.368 28.659 142.632 28.545C142.896 28.428 143.193 28.3695 143.523 28.3695C143.796 28.3695 144.048 28.416 144.279 28.509C144.513 28.599 144.714 28.731 144.882 28.905C145.053 29.076 145.186 29.289 145.282 29.544C145.378 29.796 145.426 30.084 145.426 30.408C145.426 30.534 145.413 30.618 145.386 30.66C145.359 30.702 145.308 30.723 145.233 30.723H142.186C142.195 31.011 142.234 31.2615 142.303 31.4745C142.375 31.6875 142.474 31.866 142.6 32.01C142.726 32.151 142.876 32.2575 143.05 32.3295C143.224 32.3985 143.419 32.433 143.635 32.433C143.836 32.433 144.009 32.4105 144.153 32.3655C144.3 32.3175 144.426 32.2665 144.531 32.2125C144.636 32.1585 144.723 32.109 144.792 32.064C144.864 32.016 144.925 31.992 144.976 31.992C145.042 31.992 145.093 32.0175 145.129 32.0685L145.354 32.361ZM150.208 28.4415V33H149.402V30.867H147.215V33H146.41V28.4415H147.215V30.2595H149.402V28.4415H150.208ZM155.392 28.4415V33H154.591V29.904C154.591 29.844 154.594 29.7795 154.6 29.7105C154.606 29.6415 154.613 29.5725 154.622 29.5035C154.595 29.5635 154.568 29.619 154.541 29.67C154.514 29.721 154.486 29.7675 154.456 29.8095L152.255 32.802C152.222 32.85 152.18 32.8965 152.129 32.9415C152.081 32.9835 152.027 33.0045 151.967 33.0045H151.481V28.446H152.287V31.542C152.287 31.599 152.284 31.662 152.278 31.731C152.272 31.797 152.264 31.8645 152.255 31.9335C152.282 31.8765 152.309 31.824 152.336 31.776C152.363 31.725 152.39 31.6785 152.417 31.6365L154.618 28.644C154.651 28.596 154.693 28.551 154.744 28.509C154.795 28.464 154.85 28.4415 154.91 28.4415H155.392ZM160.568 28.4415V33H159.767V29.904C159.767 29.844 159.77 29.7795 159.776 29.7105C159.782 29.6415 159.79 29.5725 159.799 29.5035C159.772 29.5635 159.745 29.619 159.718 29.67C159.691 29.721 159.662 29.7675 159.632 29.8095L157.432 32.802C157.399 32.85 157.357 32.8965 157.306 32.9415C157.258 32.9835 157.204 33.0045 157.144 33.0045H156.658V28.446H157.463V31.542C157.463 31.599 157.46 31.662 157.454 31.731C157.448 31.797 157.441 31.8645 157.432 31.9335C157.459 31.8765 157.486 31.824 157.513 31.776C157.54 31.725 157.567 31.6785 157.594 31.6365L159.794 28.644C159.827 28.596 159.869 28.551 159.92 28.509C159.971 28.464 160.027 28.4415 160.087 28.4415H160.568ZM158.665 27.339C158.788 27.339 158.891 27.3255 158.975 27.2985C159.059 27.2685 159.127 27.222 159.178 27.159C159.232 27.096 159.271 27.015 159.295 26.916C159.319 26.817 159.331 26.6955 159.331 26.5515H159.799C159.856 26.5515 159.899 26.577 159.929 26.628C159.959 26.679 159.974 26.7345 159.974 26.7945C159.974 26.9445 159.944 27.0795 159.884 27.1995C159.824 27.3195 159.737 27.423 159.623 27.51C159.512 27.594 159.376 27.6585 159.214 27.7035C159.052 27.7485 158.869 27.771 158.665 27.771C158.461 27.771 158.278 27.7485 158.116 27.7035C157.954 27.6585 157.816 27.594 157.702 27.51C157.591 27.423 157.505 27.3195 157.445 27.1995C157.385 27.0795 157.355 26.9445 157.355 26.7945C157.355 26.7345 157.37 26.679 157.4 26.628C157.43 26.577 157.474 26.5515 157.531 26.5515H157.999C157.999 26.6955 158.011 26.817 158.035 26.916C158.059 27.015 158.096 27.096 158.147 27.159C158.201 27.222 158.27 27.2685 158.354 27.2985C158.438 27.3255 158.542 27.339 158.665 27.339ZM162.43 30.1695C162.43 29.5275 162.348 28.9035 162.183 28.2975C162.021 27.6915 161.782 27.1155 161.467 26.5695C161.443 26.5245 161.428 26.4855 161.422 26.4525C161.416 26.4165 161.418 26.3865 161.427 26.3625C161.436 26.3355 161.449 26.313 161.467 26.295C161.488 26.274 161.511 26.256 161.535 26.241L161.89 26.0205C162.115 26.3685 162.306 26.712 162.462 27.051C162.621 27.39 162.748 27.7305 162.844 28.0725C162.943 28.4115 163.015 28.755 163.06 29.103C163.105 29.451 163.128 29.8065 163.128 30.1695C163.128 30.5355 163.105 30.8925 163.06 31.2405C163.015 31.5855 162.943 31.929 162.844 32.271C162.748 32.613 162.621 32.9535 162.462 33.2925C162.306 33.6315 162.115 33.9735 161.89 34.3185L161.535 34.1025C161.511 34.0875 161.488 34.0695 161.467 34.0485C161.449 34.0305 161.436 34.008 161.427 33.981C161.418 33.957 161.416 33.927 161.422 33.891C161.428 33.855 161.443 33.8145 161.467 33.7695C161.782 33.2235 162.021 32.6475 162.183 32.0415C162.348 31.4355 162.43 30.8115 162.43 30.1695Z" fill="white"/>
<path d="M12.003 0H11.997C5.3805 0 0 5.382 0 12C0 14.625 0.846 17.058 2.2845 19.0335L0.789 23.4915L5.4015 22.017C7.299 23.274 9.5625 24 12.003 24C18.6195 24 24 18.6165 24 12C24 5.3835 18.6195 0 12.003 0Z" fill="#4CAF50"/>
<path d="M18.9856 16.9455C18.6961 17.763 17.5471 18.441 16.6306 18.639C16.0036 18.7725 15.1846 18.879 12.4276 17.736C8.90114 16.275 6.63014 12.6915 6.45314 12.459C6.28364 12.2265 5.02814 10.5615 5.02814 8.83953C5.02814 7.11753 5.90264 6.27903 6.25514 5.91903C6.54464 5.62353 7.02314 5.48853 7.48214 5.48853C7.63064 5.48853 7.76414 5.49603 7.88414 5.50203C8.23664 5.51703 8.41364 5.53803 8.64614 6.09453C8.93564 6.79203 9.64064 8.51403 9.72464 8.69103C9.81014 8.86803 9.89564 9.10803 9.77564 9.34053C9.66314 9.58053 9.56414 9.68703 9.38714 9.89103C9.21014 10.095 9.04214 10.251 8.86514 10.47C8.70314 10.6605 8.52014 10.8645 8.72414 11.217C8.92814 11.562 9.63314 12.7125 10.6711 13.6365C12.0106 14.829 13.0966 15.21 13.4851 15.372C13.7746 15.492 14.1196 15.4635 14.3311 15.2385C14.5996 14.949 14.9311 14.469 15.2686 13.9965C15.5086 13.6575 15.8116 13.6155 16.1296 13.7355C16.4536 13.848 18.1681 14.6955 18.5206 14.871C18.8731 15.048 19.1056 15.132 19.1911 15.2805C19.2751 15.429 19.2751 16.1265 18.9856 16.9455Z" fill="#FAFAFA"/>
</svg>
